<?xml version="1.0" standalone="no"?>
<!DOCTYPE svg PUBLIC "-//W3C//DTD SVG 20010904//EN"
 "http://www.w3.org/TR/2001/REC-SVG-20010904/DTD/svg10.dtd">
<svg version="1.0" xmlns="http://www.w3.org/2000/svg"
 width="1024.000000pt" height="1024.000000pt" viewBox="0 0 1024.000000 1024.000000"
 preserveAspectRatio="xMidYMid meet">

<g transform="translate(0.000000,1024.000000) scale(0.100000,-0.100000)"
fill="#000000" stroke="none">
<path d="M6325 9613 c-38 -2 -74 -8 -80 -13 -5 -4 -55 -15 -110 -24 -135 -22
-208 -38 -219 -48 -6 -4 -19 -8 -31 -8 -57 0 -92 -41 -62 -72 7 -7 22 -27 32
-44 29 -46 97 -147 107 -159 10 -12 118 -232 118 -240 0 -3 8 -24 19 -48 10
-23 27 -69 37 -102 10 -33 25 -64 31 -68 7 -4 13 -16 13 -26 0 -10 6 -24 14
-30 8 -7 18 -27 21 -44 4 -18 11 -48 17 -67 10 -30 12 -32 19 -15 6 16 8 13 9
-15 0 -29 2 -32 11 -17 5 9 14 17 19 17 5 0 11 -8 13 -17 4 -16 5 -16 6 1 1
11 6 16 15 13 8 -3 18 2 22 11 6 13 9 11 14 -13 6 -30 7 -29 17 15 11 44 11
44 12 10 1 -35 15 -32 24 5 4 15 5 13 6 -7 1 -29 21 -40 21 -13 0 23 18 18 23
-7 3 -16 5 -12 6 12 l3 35 12 -35 13 -35 11 30 10 30 2 -35 1 -35 17 30 17 30
3 -25 4 -24 14 24 13 25 1 -30 1 -30 14 25 14 25 1 -25 0 -25 20 25 20 25 -6
-35 c-6 -33 -6 -34 9 -15 15 18 16 18 17 3 0 -10 7 -18 15 -18 8 0 15 -8 16
-17 0 -11 3 -13 6 -5 7 17 23 15 23 -4 0 -8 5 -12 10 -9 14 9 43 -22 34 -36
-4 -7 -3 -9 4 -5 5 3 13 0 15 -6 4 -10 8 -9 17 2 8 12 9 8 4 -15 -7 -28 -6
-29 11 -15 17 14 18 13 11 -5 -6 -16 -5 -18 5 -7 20 19 26 15 33 -19 5 -27 8
-30 21 -19 10 9 15 9 15 1 0 -18 15 -13 44 14 14 13 26 21 26 18 0 -3 17 10
38 28 67 59 92 79 92 73 0 -5 54 35 105 78 38 32 64 53 94 77 17 13 31 31 31
40 0 12 2 13 9 3 6 -11 14 -9 34 10 15 13 44 36 66 52 22 16 38 32 36 36 -3 4
-37 27 -77 51 -97 57 -102 62 -142 133 -72 130 -96 184 -96 221 0 34 2 37 25
33 17 -4 25 -1 25 8 0 17 -4 18 61 -5 70 -24 171 -76 284 -145 74 -46 91 -53
98 -40 5 9 4 20 -3 28 -6 8 -10 18 -9 22 1 5 1 25 0 44 -1 29 -8 39 -39 60
-20 14 -39 28 -42 32 -9 11 -94 68 -103 68 -5 0 -20 9 -34 20 -14 11 -34 20
-43 20 -10 0 -23 6 -29 14 -7 8 -24 17 -38 21 -15 3 -32 13 -37 21 -6 7 -38
23 -71 35 -33 11 -67 26 -75 33 -15 12 -71 31 -180 61 -144 39 -238 57 -328
60 -53 2 -131 6 -172 8 -41 2 -106 2 -145 0z"/>
<path d="M5596 9519 c3 -5 -6 -9 -19 -9 -14 0 -30 -6 -36 -13 -6 -8 -30 -24
-54 -36 -29 -15 -51 -36 -65 -62 -12 -21 -18 -39 -13 -39 12 0 5 -138 -9 -155
-10 -12 -10 -15 4 -15 13 0 14 -5 5 -26 -5 -15 -7 -29 -4 -32 2 -3 -1 -12 -8
-20 -7 -9 -12 -45 -13 -84 0 -39 -6 -73 -11 -76 -6 -4 -9 -26 -8 -49 1 -24 -3
-54 -10 -67 -10 -19 -10 -26 -2 -29 9 -3 9 -8 0 -18 -16 -17 -17 -51 -1 -67 9
-9 8 -12 -6 -12 -15 0 -16 -3 -6 -15 9 -11 9 -19 2 -28 -6 -7 -10 -34 -8 -60
1 -26 -1 -47 -6 -47 -5 0 -6 -11 -2 -25 4 -15 1 -32 -6 -40 -10 -12 -9 -20 4
-40 15 -22 15 -26 1 -31 -13 -5 -12 -10 5 -31 28 -36 25 -51 -5 -23 -31 30
-34 6 -3 -27 25 -27 5 -33 -24 -6 -30 27 -20 0 16 -41 29 -33 34 -45 30 -79
-4 -41 -14 -64 -14 -33 0 10 -5 14 -11 10 -6 -3 -9 -15 -6 -25 4 -14 0 -19
-14 -19 -10 0 -23 -9 -29 -20 -6 -11 -16 -20 -21 -20 -6 0 -25 -11 -41 -26
-17 -14 -44 -28 -59 -31 -16 -3 -29 -9 -29 -14 0 -5 -7 -9 -16 -9 -10 0 -14 6
-11 15 4 8 1 17 -4 21 -6 3 -8 17 -5 29 3 13 2 26 -3 30 -11 6 -12 11 -12 130
0 125 5 194 13 188 5 -2 4 7 -2 21 -10 28 0 108 24 174 9 24 15 60 14 80 -1
35 62 303 81 340 9 18 26 66 41 115 7 21 5 27 -6 27 -16 0 -19 16 -4 25 10 6
40 70 40 84 0 3 -10 -10 -21 -29 -12 -19 -34 -50 -50 -68 -16 -18 -29 -39 -29
-47 0 -8 -9 -24 -20 -35 -21 -21 -53 -86 -85 -172 -10 -27 -22 -48 -28 -48 -5
0 -7 -9 -4 -20 3 -10 0 -21 -6 -23 -6 -2 -11 -21 -11 -42 0 -21 -2 -32 -5 -24
-3 8 -13 -17 -23 -56 l-17 -70 5 54 c3 30 12 79 20 110 8 30 13 80 13 111 -1
30 -3 47 -6 37 -3 -14 -11 -17 -26 -13 -17 4 -39 -13 -110 -85 -48 -50 -113
-125 -144 -167 -32 -42 -63 -83 -70 -90 -7 -7 -13 -20 -13 -28 0 -7 -17 -38
-37 -68 -20 -31 -38 -62 -39 -71 -3 -20 -38 -92 -64 -130 -11 -16 -20 -40 -20
-52 0 -12 -5 -25 -10 -28 -6 -4 -8 -11 -4 -16 3 -6 -6 -28 -21 -50 -26 -37
-65 -136 -65 -166 0 -7 -4 -21 -9 -31 -20 -39 -41 -122 -52 -197 -6 -44 -17
-93 -25 -110 -17 -35 -22 -72 -28 -208 l-4 -97 26 -7 c18 -4 29 -1 37 11 9 12
21 15 41 11 22 -5 25 -4 14 4 -12 9 -9 11 15 11 23 0 27 3 15 10 -13 8 -12 10
3 10 9 0 17 5 17 10 0 6 7 10 16 10 8 0 13 4 10 9 -3 5 4 11 17 15 12 3 38 20
57 37 30 26 32 30 11 24 -16 -5 -21 -4 -17 4 4 6 17 11 29 12 21 0 21 1 2 9
-17 7 -17 9 -2 9 9 1 17 6 17 11 0 6 10 15 23 20 20 8 21 9 2 11 -14 1 -11 4
10 9 l30 7 -25 11 -25 11 25 1 c20 0 22 2 10 10 -12 8 -10 10 8 10 24 0 55 23
45 33 -3 3 6 9 21 13 30 7 25 23 -7 25 -17 1 -15 3 8 9 17 4 23 8 15 9 -9 1
-6 6 10 14 14 8 24 19 22 26 -2 9 7 11 30 7 l33 -6 -35 14 -35 14 29 1 c22 1
26 4 18 14 -10 12 -2 40 12 38 18 -3 20 0 6 9 -12 8 -11 10 6 10 11 0 29 -9
39 -20 10 -11 23 -20 28 -20 6 0 2 6 -9 14 -26 19 -18 25 44 28 41 2 49 5 37
14 -13 10 -10 12 16 18 43 8 71 5 34 -4 -23 -6 -25 -8 -8 -9 12 0 27 -9 32
-18 8 -15 11 -15 12 -3 1 8 1 18 0 22 0 4 6 5 14 2 11 -5 12 -11 4 -25 -5 -10
-14 -19 -19 -19 -6 0 -9 -5 -8 -12 2 -6 -8 -15 -22 -19 -19 -5 -20 -7 -6 -8
18 -1 17 -3 -4 -21 -13 -11 -20 -20 -15 -20 4 0 -22 -30 -58 -67 -36 -38 -74
-78 -85 -90 -11 -13 -24 -23 -30 -23 -5 0 -12 -7 -16 -15 -3 -8 -12 -15 -20
-15 -9 0 -13 -6 -10 -14 6 -16 -51 -76 -73 -76 -8 0 -11 -5 -7 -11 3 -6 -19
-34 -50 -63 -31 -29 -54 -55 -51 -58 7 -7 -24 -36 -64 -59 -18 -11 -31 -23
-28 -26 5 -4 -11 -21 -61 -64 -12 -10 -12 -13 0 -20 9 -6 7 -9 -9 -9 -14 0
-21 -5 -18 -12 3 -7 -10 -20 -28 -29 -17 -9 -31 -22 -29 -28 1 -6 -6 -11 -15
-11 -17 -1 -17 -1 0 -14 16 -12 15 -14 -18 -20 -19 -4 -35 -11 -35 -16 0 -6
-10 -10 -21 -10 -19 0 -20 -2 -8 -17 8 -9 9 -14 3 -10 -15 9 -35 -16 -38 -47
-2 -14 14 -59 35 -101 21 -41 36 -75 33 -75 -4 0 1 -11 10 -25 9 -13 16 -38
16 -55 0 -18 6 -33 15 -36 8 -3 17 -14 20 -24 3 -11 15 -22 26 -25 10 -4 17
-11 14 -16 -4 -5 0 -9 8 -9 13 0 27 -20 27 -36 0 -2 -12 -2 -27 1 l-28 5 25
-11 25 -12 -30 -6 -30 -7 28 -7 c15 -4 27 -12 27 -17 0 -6 9 -10 20 -10 11 0
20 -4 20 -10 0 -5 -14 -10 -31 -10 -16 0 -28 -4 -25 -9 3 -5 16 -7 29 -4 16 3
18 2 8 -5 -15 -11 2 -27 18 -17 5 3 12 1 15 -4 4 -5 2 -13 -4 -16 -8 -5 -8
-11 0 -20 8 -9 4 -20 -14 -42 -34 -40 -43 -79 -22 -101 21 -25 66 -110 66
-128 0 -26 -19 -14 -51 34 -18 26 -45 63 -60 82 -26 32 -57 87 -141 248 -18
34 -34 58 -36 52 -4 -10 92 -194 160 -310 122 -206 168 -270 253 -356 97 -97
98 -99 80 -114 -13 -11 -14 -10 -9 5 6 14 4 16 -6 10 -8 -5 -17 -3 -24 6 -6 8
-31 31 -55 53 l-44 38 -13 -38 c-8 -22 -14 -47 -14 -56 0 -10 -4 -18 -9 -18
-17 0 -81 83 -112 145 -26 50 -30 54 -24 25 10 -51 72 -157 123 -212 24 -26
41 -51 38 -57 -7 -10 11 -25 31 -26 7 0 13 -4 14 -10 0 -5 5 -16 11 -23 6 -7
9 -15 6 -17 -4 -4 -121 114 -156 159 -43 54 -102 166 -117 221 -15 54 -16 71
-6 112 7 26 18 57 26 69 12 18 11 25 -6 50 l-20 29 3 -29 c4 -36 -16 -43 -108
-45 -50 -1 -70 -7 -119 -37 -33 -19 -63 -41 -67 -47 -8 -12 -39 -109 -45 -139
-1 -9 -21 -56 -44 -104 -29 -61 -44 -83 -52 -75 -7 7 -4 33 12 88 12 43 26 94
31 113 5 19 14 36 19 38 6 2 11 13 11 24 0 38 -27 0 -89 -125 -64 -131 -151
-328 -151 -345 0 -10 -29 -26 -42 -24 -5 1 -8 -3 -8 -8 0 -6 5 -10 11 -10 6 0
3 -7 -5 -16 -9 -8 -16 -20 -16 -27 0 -6 -7 -2 -15 9 -14 18 -14 17 -15 -13 0
-20 -5 -33 -12 -33 -9 0 -12 15 -9 52 3 48 2 51 -14 35 -10 -10 -14 -25 -10
-36 3 -11 1 -22 -5 -26 -5 -3 -10 1 -10 10 0 8 -7 18 -15 21 -8 3 -20 25 -25
48 -6 22 -18 57 -26 76 l-15 35 4 -53 c2 -29 0 -55 -4 -58 -5 -3 -9 1 -9 9 0
27 -33 117 -43 117 -5 0 -7 -15 -3 -35 3 -19 8 -52 11 -72 4 -31 3 -33 -4 -13
-5 14 -9 38 -10 53 -1 17 -5 26 -11 22 -6 -4 -8 -16 -5 -28 5 -20 5 -20 -5 -4
-7 10 -10 35 -7 55 3 20 3 28 0 18 -5 -18 -6 -18 -24 5 l-18 24 10 -44 c5 -24
12 -47 14 -51 2 -3 0 -12 -6 -20 -6 -11 -9 -8 -9 12 0 15 -8 46 -17 70 -13 34
-18 38 -23 23 -5 -14 -9 -7 -14 25 -5 33 -9 41 -16 30 -13 -20 -13 -63 0 -55
6 4 7 -1 3 -11 -4 -11 -8 -13 -11 -6 -2 7 -7 10 -12 7 -6 -4 -21 43 -25 80 -1
6 -9 27 -19 48 -21 42 -41 50 -32 12 4 -14 3 -25 -1 -25 -10 0 -43 80 -43 105
-1 18 -2 18 -10 4 -7 -12 -5 -31 5 -59 17 -49 19 -80 5 -80 -5 0 -10 18 -10
40 0 40 -15 55 -23 23 -4 -17 -5 -17 -6 0 0 9 -5 17 -10 17 -5 0 -12 10 -16
23 -6 19 -8 20 -12 4 -3 -10 2 -26 11 -36 17 -18 21 -41 9 -41 -18 1 -58 116
-56 163 1 27 -2 45 -7 42 -11 -7 -36 40 -59 113 -10 30 -21 50 -24 45 -8 -13
2 -73 13 -73 4 0 13 -19 20 -42 8 -24 18 -49 23 -56 6 -7 7 -15 4 -18 -3 -4
-15 9 -26 27 -17 27 -21 30 -21 14 0 -12 4 -25 9 -30 5 -6 12 -21 16 -35 7
-22 6 -23 -9 -8 -9 9 -16 23 -16 30 0 7 -9 28 -21 47 -12 21 -18 43 -15 56 6
23 -3 45 -36 95 -9 14 -20 37 -23 53 -8 29 -25 37 -25 12 0 -9 6 -29 14 -44
13 -24 13 -28 0 -28 -8 0 -12 2 -10 4 2 3 -4 23 -15 46 -10 23 -19 54 -19 70
0 15 -4 27 -10 27 -5 0 -10 9 -10 20 0 11 -4 20 -10 20 -5 0 -10 10 -10 22 0
17 -3 19 -12 10 -10 -10 -10 -17 -1 -32 14 -22 3 -29 -34 -22 -18 3 -20 7 -11
22 6 9 8 26 4 36 -7 17 -9 16 -20 -10 l-12 -29 -11 26 c-7 15 -24 29 -40 33
-15 4 -33 14 -39 23 -10 13 -14 13 -28 2 -9 -7 -17 -23 -17 -35 -1 -17 -2 -17
-6 -3 -5 19 -33 24 -33 6 0 -20 -27 10 -34 36 -7 28 -26 34 -26 9 0 -12 -6
-15 -22 -10 -13 4 -30 8 -38 10 -8 1 -22 6 -30 9 -22 10 -60 3 -70 -13 -7 -11
-11 -11 -24 -1 -8 7 -31 14 -52 16 -29 3 -37 -1 -41 -16 -5 -19 -6 -19 -20 -2
-14 17 -14 17 -10 -4 3 -13 -1 -24 -9 -27 -9 -3 -14 1 -14 12 -1 17 -22 52
-32 52 -3 0 -9 -10 -13 -22 -7 -22 -7 -22 -12 -3 -3 11 -10 23 -17 27 -15 10
-56 -31 -56 -55 0 -11 -3 -17 -7 -14 -3 4 -12 2 -20 -4 -9 -9 -13 -8 -13 0 0
6 -4 11 -10 11 -5 0 -10 -7 -10 -16 0 -10 -6 -14 -15 -10 -8 3 -15 1 -15 -5 0
-6 -5 -7 -11 -4 -6 4 -13 -2 -16 -14 -3 -11 -9 -18 -15 -15 -5 3 -6 13 -4 22
3 10 1 24 -4 32 -8 12 -10 11 -10 -7 0 -13 -4 -23 -8 -23 -5 0 -14 -12 -21
-26 -9 -20 -9 -30 0 -40 8 -10 8 -14 0 -14 -6 0 -11 5 -11 10 0 19 -18 10 -25
-12 -4 -13 -7 -26 -6 -30 1 -5 -2 -8 -7 -8 -8 0 -35 -58 -37 -80 -1 -8 -2 -23
-3 -32 -1 -10 -9 -18 -17 -18 -8 0 -12 -6 -9 -13 3 -8 0 -27 -6 -42 -9 -23
-13 -26 -20 -15 -10 16 -7 21 -35 -60 -9 -24 -21 -48 -28 -52 -8 -5 -4 -8 11
-8 15 0 22 -6 22 -20 0 -11 -7 -20 -15 -20 -8 0 -15 -9 -15 -20 0 -11 -6 -20
-14 -20 -9 0 -12 -8 -8 -25 2 -15 0 -25 -7 -25 -15 0 -14 -27 2 -33 9 -4 8 -8
-3 -16 -12 -8 -12 -13 -2 -23 16 -16 16 -38 -1 -38 -9 0 -11 -12 -9 -40 2 -22
7 -38 11 -36 4 3 7 -11 7 -29 0 -19 -3 -30 -7 -24 -8 13 -4 -130 5 -158 4 -11
1 -33 -5 -49 -9 -23 -18 -153 -22 -299 -2 -79 16 -341 24 -363 12 -30 13 -36
24 -102 4 -25 13 -58 21 -75 8 -16 22 -59 33 -95 34 -118 87 -254 138 -356 72
-144 71 -137 22 -192 -53 -59 -73 -105 -64 -149 3 -18 10 -33 15 -33 6 0 6
-10 0 -26 -13 -32 -13 -90 0 -113 5 -10 22 -24 38 -30 42 -18 92 -2 184 59 42
27 84 50 94 50 9 0 42 -23 73 -51 88 -80 91 -82 186 -150 108 -78 164 -111
234 -139 61 -24 67 -21 129 55 22 28 52 64 67 80 l27 30 -17 -30 c-27 -46
-108 -147 -235 -293 -63 -74 -123 -145 -132 -160 -9 -14 -24 -29 -32 -34 -8
-4 -36 -39 -62 -76 -25 -37 -53 -71 -60 -75 -7 -4 -25 -31 -39 -60 -21 -44
-22 -54 -11 -66 42 -41 134 48 440 426 32 40 74 87 93 103 33 29 36 30 53 15
10 -9 45 -25 77 -35 139 -43 144 -55 65 -159 -52 -69 -94 -131 -140 -205 -9
-15 -34 -54 -55 -85 -26 -40 -42 -81 -53 -131 -14 -68 -14 -81 1 -150 10 -41
21 -79 26 -84 5 -6 9 -17 9 -25 0 -8 16 -38 37 -68 20 -29 34 -56 31 -59 -8
-7 -51 51 -87 115 -27 51 -29 52 -35 27 -4 -15 -20 -57 -38 -94 -58 -127 -88
-207 -110 -295 -19 -80 -20 -95 -10 -165 21 -130 82 -230 188 -302 94 -65 233
-87 344 -54 80 24 158 106 215 226 43 92 75 193 75 239 0 41 15 50 109 69 63
12 109 28 148 51 54 33 223 184 223 201 0 4 -8 8 -17 8 -15 0 -16 2 -3 9 8 6
17 8 20 6 4 -2 22 8 40 24 l34 28 -35 8 -34 8 44 7 c69 11 110 75 54 82 -25 4
-24 5 12 12 40 8 75 31 75 48 0 20 37 47 75 53 89 17 116 44 126 127 4 33 12
65 17 70 6 6 28 12 49 13 21 1 51 6 66 10 21 6 42 0 86 -21 54 -27 59 -32 76
-84 9 -30 28 -77 42 -103 20 -41 27 -47 46 -41 19 5 17 1 -12 -30 -35 -36 -48
-95 -23 -104 11 -3 32 -42 46 -85 3 -10 1 -28 -5 -40 -9 -16 -9 -22 0 -25 21
-7 11 -66 -21 -132 -18 -36 -39 -69 -45 -73 -7 -4 -13 -17 -13 -27 0 -22 -20
-28 -21 -7 0 6 -5 1 -10 -12 -16 -41 -18 -19 -4 49 7 36 12 66 11 68 -2 1 -26
-28 -53 -65 -72 -97 -94 -164 -102 -303 -5 -88 -8 -107 -15 -83 -10 43 -26 52
-26 16 -1 -25 -2 -26 -12 -9 -16 27 -4 171 19 231 21 55 89 148 152 210 23 21
41 45 41 53 0 7 5 10 10 7 18 -11 60 23 59 48 -1 17 -2 18 -6 5 -2 -10 -13
-18 -24 -18 -10 0 -19 -5 -19 -12 0 -6 -3 -8 -6 -5 -4 4 -15 -3 -25 -15 -11
-11 -19 -18 -19 -13 0 10 -47 -21 -83 -54 -114 -106 -140 -139 -187 -236 -27
-55 -52 -112 -55 -128 -11 -43 -23 -41 -35 5 -16 63 -20 72 -27 65 -3 -4 -12
-2 -20 4 -10 9 -13 8 -13 -5 0 -10 -4 -14 -10 -11 -5 3 -10 -1 -10 -9 0 -8 -5
-18 -10 -21 -7 -4 -9 3 -4 22 3 15 8 37 10 48 10 45 -46 -77 -75 -164 -17 -52
-72 -183 -121 -291 -97 -214 -116 -278 -106 -379 19 -208 239 -365 449 -321
107 22 219 119 294 254 15 28 48 110 73 181 l45 130 70 8 c85 11 88 11 201 2
90 -8 91 -8 185 32 52 22 132 52 179 66 132 40 234 115 336 243 17 21 36 48
42 60 10 19 9 21 -16 17 -21 -3 -17 1 19 21 33 18 50 35 58 57 14 40 14 39 -5
39 -9 0 -12 -5 -8 -12 4 -7 3 -8 -4 -4 -6 4 -35 0 -63 -8 -37 -11 -62 -13 -92
-6 -23 5 -75 14 -114 19 -70 11 -183 59 -313 135 -62 36 -45 33 46 -9 103 -47
234 -90 333 -110 68 -14 90 -15 134 -5 61 15 84 25 115 53 27 25 30 61 5 53
-121 -34 -146 -38 -229 -33 -84 4 -122 10 -168 24 -25 7 -114 60 -141 84 -11
9 -53 34 -94 55 -95 50 -77 56 25 8 157 -72 319 -119 440 -128 62 -5 64 -4 19
3 -101 18 -191 42 -279 74 -71 27 -100 45 -56 34 21 -5 23 -4 8 6 -9 7 -25 17
-35 23 -10 7 -15 15 -10 20 4 4 18 -3 31 -15 17 -16 41 -25 73 -28 80 -7 217
-36 238 -50 11 -7 28 -13 38 -13 10 0 15 -4 12 -10 -3 -5 -1 -11 4 -11 6 -1
17 -2 24 -3 6 -1 11 -9 9 -19 -3 -16 2 -17 35 -11 57 10 95 32 90 52 -8 37 51
109 68 82 3 -5 20 -10 38 -10 26 0 44 13 99 69 37 39 68 77 68 85 0 21 -58 62
-100 71 -19 4 -38 9 -41 11 -3 2 5 43 18 91 13 48 28 116 33 151 9 55 8 65 -7
80 -16 16 -14 17 33 23 27 3 45 7 39 8 -5 1 -3 5 5 11 12 7 12 11 -3 28 -10
11 -17 23 -16 28 1 5 -4 23 -11 39 -19 45 -21 62 -7 77 7 7 17 31 22 53 27
110 82 -27 59 -144 l-7 -31 -23 32 c-30 39 -31 30 -3 -24 20 -38 22 -40 57
-34 20 3 48 6 62 7 24 0 25 0 3 9 -13 5 -35 5 -55 -1 -44 -12 -44 -12 -22 12
15 17 20 40 22 123 4 107 11 126 46 126 22 0 22 1 11 73 -6 39 -11 116 -10
169 0 86 -2 97 -19 102 -25 6 -11 26 20 26 17 0 24 6 24 19 0 19 29 35 87 46
80 16 181 115 253 250 53 98 64 112 101 120 17 4 36 18 46 36 10 16 22 28 28
26 5 -2 20 -32 33 -68 28 -78 44 -96 96 -110 48 -13 72 -32 80 -64 3 -12 21
-32 39 -43 25 -15 38 -31 48 -66 7 -25 18 -46 24 -46 5 0 2 -5 -7 -11 -24 -13
-23 -28 8 -96 44 -99 57 -123 66 -123 5 0 7 -8 4 -17 -6 -21 -7 -64 -3 -108 4
-31 27 -49 80 -60 26 -5 27 -8 27 -64 0 -37 -11 -94 -31 -157 -17 -55 -33
-124 -36 -155 -5 -54 -4 -58 32 -98 62 -69 87 -59 170 69 35 54 79 109 97 124
61 46 125 28 177 -48 17 -24 37 -46 46 -50 21 -8 69 -115 95 -213 21 -78 64
-148 110 -180 48 -34 132 -6 114 37 -3 8 -8 22 -11 30 -4 13 -4 13 6 0 9 -12
11 -5 10 30 -2 25 3 56 10 68 8 15 12 56 11 110 -3 116 -3 121 -11 116 -4 -2
-10 0 -14 6 -3 5 -1 10 6 10 7 0 2 11 -11 25 -13 14 -18 25 -12 25 7 0 12 -4
12 -9 0 -5 7 -11 15 -15 26 -10 16 7 -34 61 -47 50 -68 83 -53 83 4 0 22 -21
41 -45 18 -25 37 -45 43 -45 12 0 -5 31 -32 55 -12 11 -27 31 -32 45 -6 15
-12 20 -15 13 -6 -15 -33 -17 -33 -3 0 6 -3 9 -7 9 -20 -3 -33 2 -33 12 0 8 5
8 15 -1 8 -7 15 -9 15 -5 0 4 7 2 15 -5 26 -22 16 4 -15 39 -24 25 -28 36 -20
46 6 8 17 12 25 9 7 -3 16 -1 20 5 3 7 0 8 -9 5 -9 -4 -16 -1 -16 6 0 9 -6 8
-19 -4 -17 -15 -19 -15 -25 -1 -3 9 -2 13 3 10 5 -3 12 -1 15 4 4 5 2 12 -3
15 -5 4 -12 2 -16 -4 -8 -13 -35 -13 -35 0 0 6 7 10 15 10 8 0 15 9 15 19 0
10 -7 21 -15 25 -8 3 -15 1 -15 -3 0 -5 6 -11 13 -14 6 -2 9 -8 4 -12 -4 -5
-13 -3 -19 3 -7 7 -21 12 -31 12 -13 0 -17 5 -13 16 3 9 6 18 6 20 0 2 10 4
22 4 17 0 19 3 10 12 -10 10 -17 10 -33 0 -12 -8 -24 -11 -27 -8 -3 3 0 6 6 6
19 0 14 18 -5 23 -10 2 -1 3 20 1 21 -3 37 0 37 6 0 10 -20 15 -54 12 -13 -2
-16 2 -12 14 5 12 2 15 -9 10 -9 -3 -14 -2 -11 3 9 14 45 20 53 9 4 -7 1 -8
-7 -3 -9 5 -11 4 -6 -4 4 -6 11 -9 16 -6 5 3 11 1 15 -5 4 -6 11 -8 16 -5 5 4
9 1 9 -6 0 -7 3 -9 6 -6 4 4 -10 22 -31 42 -22 19 -33 35 -26 35 12 0 101 89
101 101 0 7 -80 -30 -90 -42 -10 -11 -79 -2 -94 14 -9 8 -25 19 -37 22 -16 5
-18 10 -8 21 15 18 11 18 -42 -2 -71 -26 -139 -43 -139 -34 0 4 27 22 60 39
32 18 62 37 66 42 4 7 -3 6 -17 -1 l-24 -13 21 24 c28 32 28 62 0 53 -36 -12
-126 -32 -126 -28 0 2 30 21 68 43 107 65 130 88 68 69 -28 -9 -40 -8 -59 5
-38 25 -29 46 32 77 69 35 98 56 89 65 -3 3 -14 2 -25 -4 -19 -11 -94 -43
-126 -54 -12 -5 -16 -3 -11 5 5 7 0 9 -14 6 -12 -4 -20 -3 -17 1 9 15 -38 93
-61 102 -13 4 -24 15 -24 24 0 8 -4 15 -9 15 -5 0 -11 11 -13 25 -4 21 -1 25
18 25 25 0 45 21 26 28 -6 2 -46 45 -88 95 -42 51 -93 112 -113 136 -77 93
-152 176 -165 183 -11 6 -13 3 -9 -15 3 -12 11 -29 17 -37 8 -12 7 -12 -9 1
-32 26 -49 34 -40 20 6 -10 3 -11 -13 -2 -12 6 -24 16 -27 22 -4 6 -12 3 -20
-8 -7 -10 -16 -15 -20 -11 -4 4 3 21 15 38 12 17 20 34 16 37 -8 8 -36 -17
-36 -33 0 -8 -6 -11 -15 -8 -10 4 -13 2 -10 -8 11 -27 -21 -41 -72 -32 -27 4
-54 8 -60 7 -7 0 -13 3 -13 7 0 4 -32 11 -71 14 -88 9 -96 12 -112 43 -10 18
-11 43 -4 96 4 40 9 78 9 86 1 10 21 12 97 7 53 -3 90 -3 83 0 -6 3 -10 9 -8
13 3 4 -34 5 -81 3 l-86 -5 7 44 c4 24 10 63 13 86 3 24 9 40 14 38 4 -3 6 4
4 15 -3 17 2 20 33 21 l37 2 -40 7 -40 7 40 3 40 3 -35 7 -35 7 30 2 c27 2 28
3 10 12 -17 8 -16 9 8 5 15 -2 30 1 33 5 3 5 26 9 52 10 38 1 42 2 22 9 l-25
8 25 2 25 2 -25 7 -25 7 34 17 c19 9 40 17 48 17 8 0 11 5 7 12 -4 7 -3 8 5 4
6 -4 19 0 28 10 16 16 16 16 -2 11 -56 -17 -253 -29 -380 -23 -212 10 -390 40
-608 103 -97 28 -56 25 84 -6 74 -16 207 -41 296 -56 146 -24 181 -26 345 -22
175 4 187 5 266 35 46 17 99 43 118 57 l34 26 -6 -30 c-5 -26 -1 -36 28 -63
107 -101 138 -132 138 -140 0 -11 56 -38 64 -31 10 10 7 25 -4 18 -14 -9 -12
5 5 35 17 29 20 86 5 95 -5 3 -10 17 -10 30 0 12 -6 25 -13 28 -7 2 -13 17
-15 33 -2 30 -37 74 -59 74 -7 0 -13 5 -13 10 0 18 -26 10 -60 -20 -19 -16
-43 -29 -53 -30 -11 0 -33 -6 -50 -14 -40 -19 -106 -36 -132 -35 -11 0 14 13
55 30 152 60 156 66 29 45 -99 -17 -269 -26 -269 -14 0 4 19 8 43 8 39 0 183
22 217 33 8 3 28 8 43 11 15 4 25 11 22 16 -4 6 1 13 9 16 9 3 16 11 16 16 0
6 -7 7 -16 4 -9 -3 -58 -11 -110 -17 -90 -11 -175 -5 -273 17 -24 6 -25 5 -7
-8 15 -12 17 -18 7 -36 -12 -23 -18 -25 -66 -22 -38 2 -55 16 -55 45 0 51 -55
31 -66 -24 l-7 -32 -82 5 c-45 3 -104 11 -131 17 -118 29 -353 99 -394 118
l-45 21 50 -6 c28 -3 84 -7 125 -9 66 -2 71 -1 40 8 -19 6 -41 17 -48 24 -7 7
-21 13 -29 13 -9 0 -14 3 -10 6 3 3 29 -1 59 -9 83 -24 227 -49 281 -49 27 1
115 -8 196 -20 89 -12 198 -20 281 -20 98 0 128 -3 110 -10 -14 -5 -52 -7 -85
-4 -42 5 -56 4 -45 -4 28 -18 209 -12 280 10 l65 20 -60 -4 c-60 -5 -60 -5
-26 10 18 8 45 14 60 14 18 0 22 3 13 9 -10 6 -9 10 7 14 12 3 19 2 16 -2 -2
-4 19 0 47 10 52 17 91 53 45 42 -12 -3 -26 -9 -32 -12 -5 -4 -28 -4 -50 -1
l-40 5 58 24 c38 16 53 27 45 33 -9 5 -5 8 12 9 18 1 20 3 7 6 -14 4 -16 8 -6
19 9 11 3 11 -32 -2 -56 -20 -221 -50 -324 -60 -158 -14 -349 -3 -520 32 -135
27 -194 45 -344 103 -154 60 -162 81 -12 29 30 -10 79 -21 108 -25 30 -3 56
-10 59 -14 3 -5 20 -9 37 -8 36 0 53 -7 -163 73 -52 19 -92 35 -88 35 4 1 65
-15 135 -34 287 -77 525 -110 746 -103 147 5 153 -6 12 -21 l-70 -8 70 -2
c107 -2 294 42 322 76 9 11 12 12 7 3 -6 -12 -4 -13 7 -2 7 6 21 12 31 12 10
0 18 5 18 10 0 6 6 10 13 10 7 0 19 10 27 21 36 51 52 68 62 66 6 -1 17 16 23
38 11 35 16 40 39 37 17 -2 26 2 26 12 0 8 10 18 23 21 46 13 77 28 77 36 0 5
-7 9 -15 9 -18 0 -20 17 -2 23 6 2 10 6 7 8 -45 37 -97 89 -94 93 2 3 1 4 -3
1 -3 -3 -17 2 -30 10 -27 18 -30 10 -6 -17 25 -27 7 -35 -21 -9 -24 23 -25 23
-19 2 6 -24 -9 -28 -27 -6 -7 8 -17 15 -22 15 -6 0 -5 -7 2 -15 16 -19 0 -19
-26 0 -24 18 -38 19 -28 3 4 -7 -12 5 -36 27 l-42 40 16 -35 17 -35 -40 45
c-32 34 -41 40 -41 25 0 -15 -3 -16 -12 -7 -7 7 -19 12 -27 12 -9 0 -27 9 -41
20 -27 21 -45 26 -35 10 3 -5 -4 -10 -16 -10 -21 0 -21 -1 -5 -27 15 -24 13
-24 -12 5 -26 29 -31 31 -42 17 -8 -9 -17 -12 -24 -7 -18 14 -48 23 -41 12 9
-14 -29 -12 -44 3 -11 10 -11 8 -2 -10 19 -37 12 -50 -9 -18 -11 17 -20 26
-20 20 0 -5 -5 -3 -10 5 -9 13 -11 13 -19 0 -8 -12 -13 -12 -30 4 -18 17 -19
17 -24 -1 -3 -12 -5 -9 -6 10 -1 26 -21 40 -21 15 -1 -7 -10 4 -20 24 -11 20
-27 41 -35 45 -17 10 -65 98 -65 121 0 14 -2 15 -9 3 -7 -11 -11 -4 -17 25 -7
36 -8 37 -14 14 -6 -22 -8 -20 -17 20 -5 25 -15 44 -21 43 -7 -2 -12 8 -12 22
0 15 -6 25 -14 25 -16 0 -46 42 -47 67 0 11 -3 13 -6 6 -7 -20 -20 -15 -26 8
-3 12 -10 18 -15 15 -6 -3 -13 1 -16 10 -4 9 -13 14 -21 10 -12 -4 -15 3 -15
31 l0 37 -20 -22 c-26 -27 -33 -28 -25 -2 8 25 -10 26 -25 3 -8 -14 -9 -10 -4
17 4 28 3 33 -7 23 -20 -20 -29 -16 -29 12 0 17 -4 23 -14 19 -28 -11 -24 14
7 44 40 38 57 40 131 18 32 -10 76 -20 97 -22 21 -2 80 -20 131 -41 72 -28
110 -37 168 -40 60 -2 70 -1 50 8 -33 14 -120 105 -120 125 0 10 -5 14 -16 10
-8 -3 -13 -2 -10 3 3 5 -1 11 -9 15 -18 6 -56 66 -49 77 2 4 -1 11 -7 15 -8 4
-9 3 -5 -4 4 -7 4 -12 -1 -12 -4 0 -17 18 -27 40 -11 22 -22 40 -26 40 -3 0
-6 12 -5 27 0 21 11 32 60 59 33 19 80 41 105 51 63 23 100 59 95 92 -2 14 -7
43 -10 63 -3 21 -9 37 -13 35 -12 -3 -162 76 -162 86 0 4 6 5 13 1 8 -6 8 -3
-1 9 -12 14 -11 16 8 12 18 -3 20 -2 10 10 -7 8 -19 15 -26 15 -8 0 -14 5 -14
10 0 14 7 13 37 -7 15 -10 24 -13 20 -6 -4 6 -2 13 5 15 7 3 -22 10 -65 18
-132 22 -250 -2 -278 -59 -8 -14 -23 -39 -35 -56 -23 -32 -25 -76 -5 -112 6
-13 9 -23 6 -23 -3 0 6 -12 20 -27 14 -16 23 -33 21 -40 -3 -6 5 -14 18 -17
25 -6 76 -47 76 -60 0 -5 9 -16 20 -26 17 -15 18 -22 9 -49 -11 -31 -49 -63
-49 -41 0 5 -9 10 -20 10 -13 0 -18 5 -14 15 4 10 0 15 -15 15 -15 0 -21 5
-19 18 2 13 -6 18 -37 23 l-40 6 35 3 c26 2 29 4 12 7 -12 2 -20 9 -17 14 4 5
1 9 -4 9 -21 0 -11 19 12 23 12 2 0 5 -28 6 -45 2 -47 3 -25 13 l25 10 -24 9
c-14 5 -30 8 -36 5 -7 -2 -18 0 -26 5 -10 6 -6 9 16 9 17 0 37 5 45 10 11 8 8
10 -15 8 -56 -3 -115 2 -115 11 0 4 12 6 28 3 20 -3 24 -2 16 7 -19 21 -77 23
-119 5 -35 -15 -38 -18 -20 -25 16 -6 13 -8 -15 -9 -32 -2 -33 -3 -10 -10 17
-5 19 -8 8 -9 -10 -1 -18 -7 -18 -15 0 -8 -11 -17 -24 -20 -13 -3 -32 -9 -43
-13 -16 -6 -17 -5 -3 12 14 17 13 18 -13 13 -15 -3 -25 -3 -23 0 3 2 1 14 -5
25 -8 14 -8 18 0 13 6 -4 11 -2 11 3 0 6 -5 11 -11 11 -7 0 -17 7 -23 16 -10
13 -22 14 -60 9 -32 -5 -44 -10 -35 -16 9 -5 -10 -9 -50 -9 -54 0 -62 -2 -57
-16 6 -15 -1 -16 -56 -10 -35 4 -90 14 -123 22 -33 7 -69 13 -80 13 -24 -1 8
-10 118 -34 42 -9 77 -19 77 -23 0 -6 -249 -9 -275 -3 -5 1 -1 7 10 12 14 6 2
8 -43 6 -34 -2 -57 0 -50 5 9 5 4 8 -12 8 -33 0 -204 18 -253 26 -69 11 -24
26 77 27 68 0 100 -4 112 -14 15 -12 17 -12 9 0 -7 12 3 13 59 7 37 -4 81 -9
99 -12 28 -4 29 -3 9 6 -29 12 -136 25 -245 28 -27 1 -46 6 -43 11 4 5 43 8
89 6 52 -2 71 0 52 5 -46 12 -195 12 -195 0 0 -5 -15 -9 -32 -9 -24 1 -27 3
-10 6 45 9 20 23 -40 23 -79 0 -117 19 -43 21 l50 2 -58 7 c-77 10 -82 18 -11
19 31 0 59 3 62 6 3 3 -6 5 -20 5 -14 0 -40 5 -59 11 -19 6 -41 13 -49 15 -36
12 18 21 108 18 72 -2 83 -1 42 4 -30 4 -64 13 -75 20 -17 11 -13 12 30 7 34
-3 43 -2 30 4 -18 8 -17 9 10 13 24 4 22 5 -15 8 l-45 2 35 9 c19 4 53 6 75 4
36 -4 37 -3 10 4 -16 5 -50 9 -75 11 -25 1 -54 5 -65 10 -13 5 28 9 109 9 71
1 126 4 123 7 -3 4 -35 12 -69 19 l-63 13 95 1 c68 1 91 4 80 12 -10 7 14 8
80 4 l95 -6 -44 20 c-24 12 -51 21 -62 21 -10 0 -21 5 -24 11 -5 7 5 8 32 3
49 -8 45 -8 66 1 11 4 23 3 30 -4 6 -6 23 -11 39 -11 30 0 112 -29 169 -60 39
-21 59 -25 59 -12 0 4 -23 16 -52 27 -29 10 -47 20 -40 23 7 2 27 -1 44 -7 17
-6 43 -10 57 -10 19 1 21 3 7 6 -15 4 -16 7 -5 14 11 8 10 12 -6 22 -11 6 -29
15 -40 19 -14 5 -10 7 13 4 43 -4 28 11 -23 23 -35 8 -36 9 -11 10 19 1 27 5
23 15 -6 15 11 36 28 36 7 0 27 -13 46 -30 90 -78 130 -106 203 -141 44 -22
85 -39 92 -39 7 0 16 -9 19 -20 3 -11 17 -23 31 -26 33 -8 30 -21 -7 -29 -16
-4 -28 -12 -26 -18 5 -18 55 -20 80 -4 12 8 40 20 62 27 22 7 45 16 50 20 6 4
27 13 47 19 20 7 59 23 85 37 26 13 54 24 61 24 11 0 16 13 13 32 0 4 8 10 19
13 10 3 22 15 25 25 4 11 12 17 21 13 12 -4 18 7 16 28 -1 4 9 5 21 3 12 -2
16 -2 10 2 -9 4 -10 11 -3 23 5 10 7 21 4 24 -3 3 -1 14 5 24 7 12 10 13 11 4
0 -8 7 -11 20 -8 15 4 20 0 21 -16 0 -16 4 -13 13 13 7 20 15 29 17 21 4 -11
8 -10 22 3 16 16 17 16 17 0 0 -16 1 -16 15 2 8 10 15 14 15 7 0 -7 7 -10 17
-6 12 5 14 3 8 -8 -7 -10 -1 -9 18 4 26 17 33 12 28 -17 -2 -11 28 12 45 33 9
12 12 11 18 -4 5 -14 9 -15 21 -5 12 10 15 10 15 -1 0 -12 2 -12 9 0 7 11 9
11 14 0 3 -9 6 -7 6 6 1 16 3 17 10 5 6 -8 7 -18 5 -22 -3 -4 4 -8 16 -8 17 0
20 -4 16 -22 -3 -13 -3 -17 0 -10 8 17 24 15 24 -3 0 -8 5 -15 11 -15 6 0 9 9
6 20 -3 11 -1 18 4 14 5 -3 9 -11 9 -18 0 -21 27 -40 33 -24 4 8 6 9 6 1 1 -6
11 -9 24 -7 12 2 16 2 10 -2 -17 -8 -16 -24 1 -24 28 0 29 -56 2 -102 -14 -24
-30 -67 -36 -95 -10 -46 -9 -57 9 -95 11 -24 31 -56 46 -73 l26 -30 -16 38
c-9 22 -11 36 -6 32 6 -3 11 -2 11 4 0 5 -5 13 -10 16 -6 4 -8 11 -4 16 3 6
25 -8 49 -30 44 -41 132 -76 162 -64 9 4 19 -1 25 -11 11 -19 30 -11 72 31 28
27 28 27 21 4 -4 -13 -8 -29 -9 -35 -3 -19 -17 -36 -29 -36 -7 0 -3 7 7 15 11
8 15 15 9 15 -13 0 -42 -32 -40 -45 0 -5 -12 -13 -29 -17 -23 -6 -21 -6 10 -3
83 9 160 107 160 204 0 53 0 54 13 23 31 -76 33 -224 2 -243 -18 -11 9 -11 69
0 40 8 46 6 84 -26 22 -18 43 -31 46 -28 3 3 0 11 -6 17 -7 7 -12 17 -12 22 0
6 5 5 12 -2 19 -19 30 -14 22 10 -6 20 -5 21 10 9 20 -17 21 -2 0 27 -8 12
-10 22 -5 22 6 0 11 -5 11 -11 0 -5 14 -15 30 -20 17 -6 30 -15 30 -20 0 -5 5
-9 11 -9 7 0 8 11 3 32 -6 31 -5 32 11 18 17 -14 17 -13 6 8 -7 13 -10 26 -7
30 3 3 6 0 6 -7 0 -7 4 -10 9 -7 14 9 43 -5 38 -18 -3 -7 4 -12 14 -12 11 0
19 2 19 3 0 2 -17 18 -37 37 -24 21 -42 31 -48 26 -7 -6 -11 -2 -12 8 -1 10 8
22 20 27 29 14 31 30 5 43 -13 6 -17 11 -10 11 7 1 23 -4 35 -10 16 -8 14 -4
-7 15 -29 26 -43 66 -22 66 6 0 0 7 -12 16 -26 18 -29 36 -4 27 15 -6 14 -3
-3 17 l-20 23 20 -7 c15 -5 17 -4 9 4 -9 9 -18 9 -35 -1 -21 -11 -23 -11 -11
3 10 13 10 17 -3 22 -8 3 -15 15 -15 26 0 11 -6 20 -12 20 -10 0 -10 2 0 8 9
7 8 13 -8 27 -11 10 -17 21 -15 26 3 4 -7 17 -21 28 -15 12 -24 24 -21 27 6 7
-36 80 -62 105 -9 9 -23 25 -31 35 -9 11 -46 41 -83 69 -37 27 -67 52 -67 57
0 4 -9 8 -19 8 -10 0 -21 7 -25 15 -5 13 8 14 84 11 50 -3 90 -3 90 0 0 3 -14
23 -32 45 -45 56 -116 101 -153 97 -17 -1 -36 1 -43 6 -17 10 -55 -3 -49 -17
5 -13 -41 -16 -59 -5 -11 8 -49 -21 -57 -44 -2 -8 -8 -9 -13 -4 -5 5 -4 11 4
13 6 3 12 14 12 26 0 19 -4 17 -30 -13 -36 -43 -39 -27 -5 24 28 41 25 44 -16
15 -20 -14 -27 -16 -23 -6 4 12 -3 15 -32 15 -31 0 -38 -4 -47 -29 -6 -16 -14
-29 -17 -29 -8 0 -4 52 5 73 4 10 5 21 1 24 -8 8 -36 -17 -36 -32 0 -7 -6 -17
-13 -23 -9 -8 -12 -3 -12 20 0 37 -24 51 -26 16 -1 -17 -3 -18 -6 -5 -2 9 -9
15 -13 12 -10 -6 -23 33 -18 54 2 8 -3 16 -9 18 -7 3 -13 -3 -13 -12 0 -11 -5
-15 -14 -12 -10 4 -12 0 -9 -14 8 -31 -13 -22 -30 13 l-16 32 -7 -29 c-8 -29
-8 -29 -20 20 l-11 50 -8 -37 c-10 -51 -21 -48 -17 5 l3 42 -19 -39 -19 -38
-7 41 c-7 45 -26 56 -26 16 0 -34 -20 -32 -21 3 0 24 -1 25 -9 7 -8 -18 -9
-18 -10 5 l-2 25 -8 -25 c-4 -14 -9 -18 -9 -10 -2 19 -40 69 -41 53 0 -7 -5
-13 -11 -13 -6 0 -8 9 -4 20 5 15 3 18 -9 14 -12 -5 -16 0 -16 17 0 17 -3 20
-9 11 -6 -10 -11 -9 -22 4 -17 21 -76 47 -89 39 -5 -3 -33 6 -62 20 -29 14
-44 18 -33 9 20 -16 19 -16 -5 -9 -14 4 -29 11 -35 14 -5 4 -20 6 -33 5 -12
-1 -20 1 -17 4 3 3 -4 12 -16 20 -11 8 -23 11 -27 7 -3 -3 0 -10 8 -15 8 -5
12 -11 9 -15 -7 -6 -89 37 -89 48 0 11 28 9 35 -3 3 -5 11 -10 16 -10 6 0 -5
14 -23 30 -18 17 -42 30 -53 30 -16 0 -17 -2 -5 -10 8 -5 10 -10 4 -10 -16 0
-23 10 -17 26 3 9 14 11 36 7 29 -6 31 -5 18 10 -7 9 -21 17 -31 17 -9 0 -25
10 -36 22 -17 19 -17 21 -1 15 22 -8 22 9 0 22 -10 5 -14 13 -10 17 5 5 12 2
16 -5 5 -8 11 -9 15 -3 8 13 -3 42 -16 42 -5 0 -6 -4 -3 -10 3 -5 1 -10 -5
-10 -6 0 -10 8 -8 18 2 9 11 16 20 14 14 -2 16 4 11 35 -3 21 -10 44 -16 51
-5 6 -7 12 -4 12 4 0 -16 43 -42 96 -29 57 -41 88 -30 78 10 -9 19 -23 19 -29
0 -7 7 -15 15 -19 8 -3 15 -11 15 -18 1 -13 50 -79 50 -67 0 3 -11 26 -24 50
-66 119 -66 118 -51 112 8 -3 15 -9 15 -14 0 -5 7 -17 15 -26 8 -10 22 -27 30
-38 14 -19 14 -18 3 10 -6 17 -16 36 -21 43 -7 8 -4 12 7 12 21 0 21 2 -14 58
-41 66 -37 86 6 39 29 -32 35 -34 29 -15 -4 12 -20 42 -36 66 -37 54 -37 60 0
22 37 -40 50 -39 17 1 -15 17 -34 45 -42 61 -15 29 -15 30 8 24 13 -3 17 -3
10 0 -6 3 -10 10 -7 14 3 5 0 12 -6 16 -8 5 -9 3 -4 -6 5 -9 4 -11 -4 -6 -6 4
-9 12 -5 17 3 5 0 17 -8 26 -10 13 -7 12 16 -2 44 -29 62 -28 35 1 -18 20 -21
27 -10 33 11 7 11 12 0 30 -8 11 -17 21 -22 21 -4 0 -5 5 -2 11 4 6 -4 22 -16
36 -19 20 -20 25 -6 20 21 -8 21 -4 1 36 -11 21 -12 28 -3 20 7 -7 17 -13 22
-13 6 0 -2 11 -17 25 -21 19 -23 25 -10 25 13 0 14 3 5 13 -6 8 -8 16 -5 20 3
3 -4 8 -15 12 -28 8 -27 25 1 25 21 0 21 0 2 15 -13 10 -15 14 -5 15 11 0 10
5 -5 21 -18 20 -18 20 11 14 l30 -6 -24 20 c-30 27 -16 27 27 1 18 -11 39 -20
46 -20 23 0 149 -231 180 -330 10 -30 30 -86 46 -125 15 -38 36 -92 45 -119
17 -48 18 -48 31 -25 12 22 13 20 16 -31 l3 -55 11 55 c7 30 12 43 13 29 2
-42 -21 -139 -31 -133 -5 4 -9 -2 -7 -12 1 -11 -1 -31 -5 -46 -11 -38 1 -71
22 -62 10 4 28 7 41 8 14 1 27 9 32 21 4 11 8 14 8 7 1 -7 6 -10 11 -7 6 3 10
27 9 53 0 35 -3 42 -9 27 -6 -14 -9 0 -9 47 -1 37 4 70 9 73 6 3 9 21 9 38
l-2 32 -7 -35 -7 -35 -2 42 c0 23 -8 48 -16 57 -17 17 -20 30 -5 21 16 -10 12
11 -5 25 -8 7 -15 18 -15 25 0 8 -5 15 -11 17 -7 2 -10 11 -7 19 3 10 10 5 22
-16 9 -16 15 -22 12 -12 -3 10 -6 33 -6 50 0 24 -3 28 -10 17 -7 -11 -10 -4
-10 27 0 56 -18 103 -30 83 -13 -20 -12 -39 0 -20 8 11 10 8 8 -15 -1 -16 2
-41 6 -55 6 -18 5 -22 -2 -15 -13 12 -43 135 -34 135 4 0 2 4 -3 8 -15 10 -35
59 -35 85 0 16 -3 18 -9 9 -6 -10 -10 -9 -14 7 -3 13 -1 19 5 14 6 -3 9 -2 6
3 -3 5 -13 26 -23 48 -17 36 -19 37 -33 20 -13 -18 -14 -17 -8 9 4 15 2 27 -3
27 -5 0 -13 10 -17 23 -3 12 -14 29 -23 38 -9 9 -29 33 -45 53 -16 20 -31 34
-34 31 -3 -2 -18 9 -34 25 -15 16 -28 26 -28 22 0 -4 -4 -1 -9 7 -5 8 -23 16
-40 17 -17 1 -28 -2 -25 -7z m-656 -1010 c0 -16 -4 -29 -9 -29 -5 0 -12 -8
-14 -17 -2 -10 -2 -2 1 17 3 19 5 43 4 53 0 9 3 15 9 12 5 -4 9 -19 9 -36z
m707 -74 c0 -8 -4 -12 -9 -9 -5 3 -6 10 -3 15 9 13 12 11 12 -6z m23 -25 c0
-5 -5 -10 -11 -10 -5 0 -7 5 -4 10 3 6 8 10 11 10 2 0 4 -4 4 -10z m-760 -36
c0 -8 -4 -12 -10 -9 -5 3 -10 10 -10 16 0 5 5 9 10 9 6 0 10 -7 10 -16z m718
-34 c-1 -22 -4 -37 -7 -34 -3 3 -5 9 -4 12 1 4 -6 16 -15 26 -9 11 -12 16 -6
13 7 -4 14 0 18 8 10 27 17 16 14 -25z m-28 -22 c0 -6 -6 -5 -15 2 -8 7 -15
14 -15 16 0 2 7 1 15 -2 8 -4 15 -11 15 -16z m-710 -48 c0 -5 -4 -10 -10 -10
-5 0 -10 5 -10 10 0 6 5 10 10 10 6 0 10 -4 10 -10z m0 -51 c0 -16 -4 -28 -8
-25 -4 2 -8 -30 -9 -72 -1 -103 -3 -112 -15 -112 -6 0 -6 -6 2 -15 7 -8 8 -15
3 -15 -10 0 -10 -40 0 -57 9 -15 -18 -24 -42 -15 -26 9 -27 21 -4 38 10 7 15
14 11 14 -4 0 -1 15 7 33 11 27 11 37 2 47 -9 9 -9 14 0 17 6 2 10 15 7 28 -2
13 2 30 9 37 15 14 16 45 3 66 -4 6 -2 12 3 12 6 0 11 11 11 25 0 14 5 25 10
25 6 0 10 -14 10 -31z m754 15 c21 -8 21 -24 0 -24 -8 0 -13 4 -10 9 4 5 0 12
-6 14 -7 3 -10 6 -6 6 3 1 13 -2 22 -5z m12 -70 c19 -15 19 -15 -1 -6 -11 5
-27 12 -35 15 -13 5 -13 6 1 6 8 1 24 -6 35 -15z m114 -84 c8 -5 11 -10 5 -10
-5 0 -17 5 -25 10 -8 5 -10 10 -5 10 6 0 17 -5 25 -10z m-710 -112 c0 -10 -46
-21 -62 -15 -7 3 1 6 17 7 30 2 30 2 5 10 -23 8 -22 8 8 7 17 -1 32 -5 32 -9z
m1890 -222 c0 -3 -4 -8 -10 -11 -5 -3 -10 -1 -10 4 0 6 5 11 10 11 6 0 10 -2
10 -4z m-1277 -411 c-3 -9 -8 -14 -10 -11 -3 3 -2 9 2 15 9 16 15 13 8 -4z
m-520 -52 c-7 -2 -19 -2 -25 0 -7 3 -2 5 12 5 14 0 19 -2 13 -5z m100 -60 c-7
-2 -19 -2 -25 0 -7 3 -2 5 12 5 14 0 19 -2 13 -5z m-470 -20 c-7 -2 -19 -2
-25 0 -7 3 -2 5 12 5 14 0 19 -2 13 -5z m2218 -57 c17 -36 4 -76 -24 -76 -51
0 -87 56 -55 88 22 22 67 15 79 -12z m-691 -26 c11 -8 7 -9 -15 -4 -37 8 -45
14 -19 14 10 0 26 -5 34 -10z m540 -140 c0 -5 -5 -10 -11 -10 -5 0 -7 5 -4 10
3 6 8 10 11 10 2 0 4 -4 4 -10z m581 -47 c13 -16 12 -17 -3 -4 -10 7 -18 15
-18 17 0 8 8 3 21 -13z m-2788 -60 c-7 -2 -21 -2 -30 0 -10 3 -4 5 12 5 17 0
24 -2 18 -5z m355 -90 c-15 -2 -42 -2 -60 0 -18 2 -6 4 27 4 33 0 48 -2 33 -4z
m334 -14 c-21 -8 -375 -19 -368 -12 9 9 155 19 273 18 61 0 104 -3 95 -6z
m-47 -28 c-8 -8 -79 -16 -195 -21 -23 -1 -24 -2 -5 -11 15 -6 11 -7 -15 -3
-76 13 -59 22 56 28 105 6 148 10 164 15 2 0 0 -3 -5 -8z m-838 -177 c-3 -3
-12 -4 -19 -1 -8 3 -5 6 6 6 11 1 17 -2 13 -5z m0 -30 c-3 -3 -12 -4 -19 -1
-8 3 -5 6 6 6 11 1 17 -2 13 -5z m-2593 -210 c3 -8 2 -12 -4 -9 -6 3 -10 10
-10 16 0 14 7 11 14 -7z m1033 -214 c-5 -20 -3 -28 6 -26 7 1 8 1 4 -2 -4 -2
-4 -9 1 -15 5 -7 12 -25 16 -42 5 -25 2 -22 -18 15 -26 50 -45 106 -27 80 9
-13 11 -13 11 3 0 9 3 17 6 17 4 0 4 -13 1 -30z m88 -191 c11 -16 1 -19 -13
-3 -7 8 -8 14 -3 14 5 0 13 -5 16 -11z m75 -83 c0 -6 -3 -6 -9 0 -6 5 -13 29
-16 54 l-5 45 15 -45 c8 -25 15 -49 15 -54z m3359 -29 c0 -21 -1 -21 -9 -2 -5
12 -9 14 -9 6 -1 -8 -3 -12 -6 -9 -9 8 6 38 16 32 5 -3 9 -15 8 -27z m-3292
-59 c-3 -7 -5 -2 -5 12 0 14 2 19 5 13 2 -7 2 -19 0 -25z m1326 -59 c5 -4 6
-12 2 -19 -5 -8 -4 -11 3 -6 12 7 78 -57 88 -86 10 -32 -11 -44 -33 -18 -10
12 -26 30 -35 39 -27 26 -78 133 -77 161 1 21 4 17 21 -20 11 -25 25 -48 31
-51z m-1218 44 c13 -58 13 -63 5 -58 -4 3 -10 15 -13 27 -2 13 -8 31 -12 41
-4 10 -3 17 4 17 6 0 13 -12 16 -27z m1525 17 c0 -5 -9 -10 -19 -10 -11 0 -23
5 -26 10 -4 6 5 10 19 10 14 0 26 -4 26 -10z m10 -30 c0 -5 -2 -10 -4 -10 -3
0 -8 5 -11 10 -3 6 -1 10 4 10 6 0 11 -4 11 -10z m-29 -47 c13 -16 12 -17 -3
-4 -10 7 -18 15 -18 17 0 8 8 3 21 -13z m2519 -71 c13 -12 13 -13 0 -6 -23 11
-50 36 -50 46 0 5 8 1 18 -9 9 -10 24 -24 32 -31z m-3903 6 c-3 -8 -6 -5 -6 6
-1 11 2 17 5 13 3 -3 4 -12 1 -19z m1623 -104 c0 -2 -13 2 -30 11 -16 9 -30
18 -30 21 0 2 14 -2 30 -11 17 -9 30 -18 30 -21z m-990 16 c0 -5 -7 -10 -15
-10 -9 0 -20 -10 -25 -22 -5 -13 -9 -17 -9 -10 -1 7 -6 10 -11 7 -6 -4 -8 -10
-5 -15 5 -8 -144 -67 -159 -62 -5 2 -6 -4 -3 -12 4 -10 1 -13 -8 -10 -16 7
-95 -32 -95 -47 0 -5 -8 -9 -17 -7 -10 2 -22 -6 -27 -18 -9 -21 -21 -29 -136
-94 -36 -20 -81 -46 -100 -58 -19 -12 -42 -25 -50 -28 -8 -4 -21 -12 -28 -17
-16 -13 -63 -16 -55 -4 3 5 14 7 24 4 21 -6 48 18 28 25 -7 2 -6 8 5 17 14 12
16 12 10 -3 -9 -23 15 -20 37 5 9 11 20 20 23 20 21 -3 26 0 20 11 -4 7 -3 8
4 4 7 -4 12 -1 12 9 0 12 -6 15 -22 9 -13 -3 -27 -13 -31 -20 -10 -17 -35 -18
-34 -1 1 42 -4 56 -19 50 -10 -4 -14 -16 -13 -37 4 -43 -32 -86 -54 -65 -8 8
-16 21 -19 29 -8 21 -38 -50 -39 -92 -1 -31 -1 -32 -9 -8 -4 14 -9 21 -10 15
-3 -17 -19 29 -19 56 -1 19 9 34 34 53 19 15 35 24 35 21 0 -4 6 0 13 7 8 7
68 46 134 87 106 65 121 78 131 110 8 27 10 29 8 9 -2 -16 1 -28 5 -28 5 0 9
4 9 9 0 5 10 12 23 16 35 12 77 14 77 4 0 -6 5 -7 11 -3 6 3 15 1 19 -6 6 -10
38 -2 137 38 71 28 146 56 168 61 22 5 41 9 43 10 1 1 2 -3 2 -9z m-513 -22
c-3 -8 -6 -5 -6 6 -1 11 2 17 5 13 3 -3 4 -12 1 -19z m43 -18 c0 -13 -1 -13
-10 0 -5 8 -10 22 -10 30 0 13 1 13 10 0 5 -8 10 -22 10 -30z m17 -2 c-3 -8
-6 -5 -6 6 -1 11 2 17 5 13 3 -3 4 -12 1 -19z m-62 -37 c3 -5 1 -12 -5 -16 -5
-3 -10 1 -10 9 0 18 6 21 15 7z m-38 -43 c-3 -8 -6 -5 -6 6 -1 11 2 17 5 13 3
-3 4 -12 1 -19z m1528 -91 c47 -29 85 -58 85 -65 0 -7 -12 -18 -26 -24 -23
-11 -33 -8 -81 17 -80 43 -148 151 -82 130 10 -4 57 -30 104 -58z m-60 -117
c3 -6 -1 -7 -9 -4 -18 7 -21 14 -7 14 6 0 13 -4 16 -10z m-1202 -82 c10 -16
14 -28 10 -28 -9 0 -53 62 -53 74 0 10 21 -13 43 -46z m2532 -9 c55 -6 116
-14 135 -19 34 -8 33 -8 -15 -9 -53 -1 -295 35 -304 46 -4 3 14 3 39 -1 25 -3
90 -11 145 -17z m-3010 -25 c-9 -9 -19 -13 -23 -10 -3 4 0 11 8 16 24 15 33
11 15 -6z m-183 -66 c-5 -7 -8 -23 -6 -35 2 -12 -1 -25 -6 -28 -6 -3 -10 -2
-10 3 0 32 -75 14 -86 -20 -3 -10 -23 -30 -45 -44 -30 -18 -39 -31 -39 -52 0
-19 -3 -23 -9 -13 -11 17 -67 6 -75 -16 -4 -10 -14 -13 -30 -9 -25 6 -36 -7
-36 -45 0 -10 -4 -19 -10 -19 -18 0 -104 -77 -112 -101 -4 -12 -7 -12 -21 -1
-13 11 -16 10 -21 -5 -10 -27 -63 -82 -90 -93 -32 -12 -51 10 -42 46 11 41
173 184 217 190 5 1 14 2 19 3 6 0 10 7 10 14 0 8 14 34 30 59 37 55 113 97
142 79 27 -17 34 -15 111 37 40 27 79 52 87 55 25 9 33 8 22 -5z m700 -85 c53
-75 78 -114 66 -103 -4 3 -28 34 -54 70 -26 36 -54 71 -61 78 -12 12 -18 32
-10 32 2 0 29 -35 59 -77z m468 53 c0 -3 -4 -8 -10 -11 -5 -3 -10 -1 -10 4 0
6 5 11 10 11 6 0 10 -2 10 -4z m-942 -71 c-3 -3 -9 2 -12 12 -6 14 -5 15 5 6
7 -7 10 -15 7 -18z m2939 19 c-3 -3 -12 -4 -19 -1 -8 3 -5 6 6 6 11 1 17 -2
13 -5z m-2611 -50 c-4 -10 -2 -14 6 -11 7 2 12 10 11 16 -2 6 1 11 6 11 18 0
58 -51 96 -124 38 -72 39 -76 23 -93 -11 -11 -18 -13 -18 -5 0 7 4 12 10 12 5
0 -3 18 -18 39 -15 22 -31 35 -36 31 -5 -5 1 -22 13 -38 23 -32 27 -57 11 -67
-6 -3 -7 1 -4 10 7 17 -59 112 -113 163 -59 55 -72 41 -37 -43 13 -33 24 -64
24 -68 0 -10 26 -37 34 -37 3 0 15 -9 26 -20 16 -16 17 -20 5 -20 -24 0 -73
53 -96 104 -36 83 -30 132 17 120 15 -4 24 -2 24 5 0 6 -8 11 -17 12 -15 0
-15 2 2 9 30 13 38 12 31 -6z m2579 -15 l70 -19 -67 6 c-68 6 -165 27 -177 40
-10 11 97 -6 174 -27z m-2695 -55 c0 -8 12 -38 26 -69 24 -51 56 -87 87 -98 8
-3 9 -8 2 -15 -14 -15 -46 14 -90 82 -44 70 -59 113 -39 113 8 0 14 -6 14 -13z
m1045 -22 c-5 -5 -45 22 -45 31 0 4 11 0 24 -10 13 -10 23 -19 21 -21z m-915
-31 c0 -21 -16 -2 -24 29 -7 24 -6 24 8 6 9 -11 16 -27 16 -35z m-400 -98 c0
-7 6 -13 13 -13 15 0 37 -41 37 -66 0 -23 -39 -7 -69 29 -46 54 -90 131 -91
156 0 21 7 17 55 -34 30 -33 55 -65 55 -72z m1905 97 c4 -6 11 -8 16 -5 8 6
13 -9 10 -28 -1 -5 3 -6 8 -2 6 3 17 -8 26 -24 19 -38 21 -165 3 -158 -7 2
-13 19 -14 38 -1 73 -5 88 -39 138 -20 28 -31 51 -26 51 6 0 13 -5 16 -10z
m-1443 -78 c12 -5 10 -32 -2 -32 -5 0 -12 11 -16 24 -3 14 -12 27 -20 30 -8 3
-14 13 -14 22 0 12 6 8 22 -12 13 -16 26 -30 30 -32z m1455 -31 c11 -44 -23
-141 -50 -141 -5 0 -2 9 8 20 25 28 30 97 11 144 -9 21 -16 41 -16 44 0 14 41
-45 47 -67z m-2177 28 c0 -9 72 -116 120 -179 35 -45 53 -80 46 -88 -7 -6 -61
47 -99 98 -31 42 -102 206 -81 189 8 -6 14 -15 14 -20z m2066 15 c-4 -11 -1
-14 13 -9 25 7 33 -16 20 -55 -14 -40 -37 -40 -31 0 2 18 0 30 -7 30 -5 0 -15
10 -22 21 -8 15 -8 19 0 15 6 -4 11 -2 11 3 0 6 5 11 11 11 6 0 8 -7 5 -16z
m44 -114 c-17 -32 -20 -20 -7 23 9 28 13 33 15 18 2 -11 -2 -30 -8 -41z m1358
-41 c2 -35 -2 -84 -8 -109 -21 -88 -52 -180 -60 -180 -4 0 -10 -8 -14 -17 -6
-20 -25 -51 -43 -70 -9 -10 -12 -10 -16 0 -3 6 -6 2 -6 -11 -1 -13 -5 -20 -11
-17 -6 4 -8 -6 -6 -25 2 -21 -1 -33 -11 -37 -12 -5 -12 -7 -1 -15 11 -8 11
-10 -1 -15 -11 -5 -11 -7 0 -14 10 -6 11 -9 2 -9 -7 0 -13 -11 -13 -25 0 -17
-6 -25 -17 -25 -12 0 -14 -3 -7 -10 14 -14 -16 -130 -32 -130 -7 0 -14 3 -17
8 -2 4 -2 0 1 -8 3 -8 6 -26 8 -40 2 -14 8 -45 14 -70 12 -47 5 -114 -14 -138
-69 -89 -176 -141 -249 -121 -43 11 -132 86 -103 86 9 0 14 -2 11 -5 -7 -7 37
-38 65 -46 14 -4 35 -12 46 -18 30 -14 123 14 165 49 35 30 68 94 69 133 0 71
-44 144 -106 176 -35 19 -106 18 -152 -1 -43 -18 -112 -82 -113 -105 0 -9 -3
-10 -5 -3 -7 16 21 67 56 103 17 17 30 33 30 35 0 3 -13 5 -28 5 -32 0 -83
-44 -113 -99 -19 -34 -20 -35 -14 -7 7 34 61 115 81 123 22 8 16 22 -8 18 -13
-2 -39 -6 -58 -9 -19 -3 -30 -2 -25 2 6 4 17 16 25 26 15 19 15 19 -15 0 -16
-10 -36 -24 -43 -31 -7 -7 -20 -9 -29 -6 -12 5 -15 2 -10 -10 3 -9 2 -17 -2
-17 -5 0 -18 -3 -28 -7 -16 -6 -16 -5 -4 10 16 20 8 35 -11 20 -7 -6 -31 -9
-53 -7 -59 6 -72 -2 -44 -26 26 -21 11 -27 -22 -10 -11 6 -18 7 -17 3 1 -4 -3
-18 -10 -30 -13 -24 -37 -22 -47 5 -5 13 -2 13 15 -3 11 -10 20 -16 20 -12 0
3 3 13 7 23 4 12 3 15 -5 10 -9 -5 -11 3 -8 28 3 20 1 38 -4 41 -6 4 -7 -1 -3
-11 5 -13 3 -15 -7 -9 -10 6 -12 4 -7 -8 3 -10 2 -17 -3 -17 -5 0 -12 -10 -16
-22 -4 -13 -42 -98 -85 -189 -44 -92 -79 -171 -79 -176 0 -6 35 -20 78 -33 42
-12 88 -27 102 -33 14 -6 29 -9 33 -8 5 1 6 -3 2 -9 -4 -6 -13 -7 -23 -1 -9 4
-25 7 -34 6 -10 -2 -18 0 -18 3 0 4 -12 8 -27 9 -15 0 -29 6 -31 12 -2 6 -8 8
-13 5 -6 -3 -15 -2 -22 3 -20 16 -97 34 -109 27 -7 -4 -8 -3 -4 4 6 11 3 13
-19 12 -3 0 -19 7 -36 16 -17 8 -37 13 -45 10 -8 -3 -14 1 -14 10 0 11 5 14
18 9 9 -4 26 -9 38 -11 12 -2 39 -10 62 -18 l40 -15 15 32 c8 18 36 79 61 137
26 58 51 114 56 125 35 77 132 376 125 384 -2 2 -7 -8 -11 -23 -3 -14 -10 -26
-15 -26 -5 0 -5 8 -2 17 6 15 5 16 -9 3 -15 -14 -15 -16 -1 -27 17 -13 10 -49
-7 -38 -6 4 -8 10 -5 15 6 9 -25 23 -33 15 -3 -3 0 -5 6 -5 7 0 12 -6 12 -14
0 -8 8 -17 17 -20 12 -5 14 -9 5 -18 -7 -7 -12 -20 -12 -30 0 -21 -11 -23 -28
-6 -7 7 -12 8 -12 2 0 -5 -4 -4 -8 3 -4 6 -19 13 -34 15 -15 2 -30 7 -34 11
-10 9 23 8 69 -2 21 -5 37 -5 37 0 0 5 -6 9 -12 10 -7 1 -20 2 -28 3 -8 2 -27
3 -42 4 -18 1 -28 8 -28 18 0 9 6 14 13 11 6 -2 23 -7 37 -11 24 -7 24 -6 6 8
-11 9 -25 16 -32 16 -7 0 -16 5 -20 12 -4 7 -3 8 4 4 8 -5 10 -1 5 10 -4 12
-3 15 5 10 8 -5 10 -2 6 9 -4 8 -1 22 6 30 6 8 9 18 6 24 -3 5 -1 12 4 14 6 3
5 4 -2 3 -6 -1 -26 -45 -44 -97 -32 -95 -166 -414 -210 -501 -13 -26 -24 -54
-24 -62 0 -24 -17 -28 -55 -12 -19 8 -35 13 -35 10 0 -3 -7 2 -16 10 -8 9 -20
14 -25 11 -5 -4 -9 -1 -9 4 0 6 -3 10 -7 9 -14 -4 -133 44 -133 53 0 5 -4 9
-10 9 -16 0 -122 51 -117 57 3 2 81 -27 174 -65 213 -89 203 -85 209 -64 3 9
16 43 29 75 13 32 21 65 18 74 -4 10 -2 14 4 10 6 -4 14 0 17 9 3 8 2 12 -4 9
-6 -3 -7 1 -4 9 3 9 10 14 14 11 5 -3 23 32 40 77 24 63 29 86 21 102 -5 12
-10 15 -10 9 -1 -7 -5 -13 -11 -13 -11 0 -2 59 13 78 12 16 -5 16 -21 0 -10
-10 -10 -6 -1 19 7 21 7 38 1 49 -5 10 -8 36 -6 58 l4 41 -14 -45 c-8 -25 -14
-40 -15 -34 -1 6 -3 27 -6 45 -4 28 -4 30 5 14 9 -17 9 -15 5 10 -4 17 -13 35
-21 41 -15 12 -19 44 -6 44 5 0 14 11 20 25 6 14 18 25 27 25 8 0 16 5 16 10
1 6 3 15 4 20 1 6 3 13 4 16 0 4 9 0 18 -7 15 -12 16 -12 10 4 -3 9 -2 17 4
17 6 0 8 4 4 9 -3 5 -1 12 5 16 6 4 8 11 5 16 -4 5 -1 9 4 9 6 0 11 -8 12 -17
0 -10 5 -5 9 11 5 15 18 35 29 43 12 8 21 21 21 30 0 11 7 14 25 11 14 -3 28
-2 31 3 11 18 31 -3 28 -29 -2 -15 7 5 19 43 23 70 44 86 39 30 -2 -28 -50
-213 -72 -280 -7 -20 -6 -32 2 -40 8 -7 9 -7 5 1 -8 13 17 67 25 58 4 -3 6 1
5 8 -2 66 12 74 76 43 51 -24 66 -15 17 10 -16 9 -30 13 -30 9 0 -4 -7 -1 -15
6 -8 7 -21 10 -29 7 -10 -4 -13 -1 -9 9 3 7 9 14 15 14 5 0 8 6 6 13 -5 27 14
59 30 52 10 -4 29 -9 45 -12 15 -3 30 -10 33 -14 9 -15 24 -10 24 9 1 19 29
73 30 57 1 -5 10 14 21 43 24 60 36 64 20 5 -12 -43 -14 -69 -4 -60 3 4 12 2
20 -4 10 -9 13 -8 13 2 0 11 20 14 80 15 53 1 80 -2 80 -10 0 -6 5 -4 10 4 5
8 10 11 10 7 0 -4 8 -3 19 2 10 6 34 12 52 13 19 1 37 6 40 10 3 5 44 13 90
18 79 8 255 43 289 57 8 3 28 7 44 9 16 3 32 7 35 9 15 16 26 -9 29 -66z
m-3663 12 c3 -5 0 -13 -5 -16 -13 -8 -52 24 -44 36 6 10 39 -5 49 -20z m219
-160 c113 -133 116 -144 7 -32 -55 58 -119 132 -142 165 l-40 61 51 -55 c29
-30 84 -93 124 -139z m1876 139 c12 -16 19 -30 16 -30 -2 0 -14 14 -26 30 -12
17 -19 30 -16 30 2 0 14 -13 26 -30z m-1890 -50 c-1 -9 -10 -4 -25 15 -14 17
-25 37 -25 45 1 9 10 4 25 -15 14 -16 25 -37 25 -45z m2585 41 c-6 -5 -25 10
-25 20 0 5 6 4 14 -3 8 -7 12 -15 11 -17z m-11 -21 c7 -7 1 -7 -19 -1 -54 17
-61 21 -25 16 19 -3 39 -10 44 -15z m-2622 -198 c56 -56 99 -105 95 -108 -14
-15 -56 15 -150 109 -80 80 -106 113 -120 152 l-18 50 46 -50 c26 -28 92 -96
147 -153z m2007 169 c-6 -2 -18 4 -27 13 -15 15 -15 15 10 4 15 -7 23 -15 17
-17z m605 9 c11 -4 15 -9 10 -12 -5 -3 -29 3 -54 13 -42 18 -43 19 -10 13 19
-4 44 -10 54 -14z m-21 -26 c15 -4 27 -11 27 -16 0 -5 -4 -7 -8 -4 -5 3 -20 7
-35 10 -14 2 -34 10 -44 16 -16 10 -15 11 7 5 14 -3 37 -8 53 -11z m-3089 -9
c-4 -8 -11 -15 -16 -15 -6 0 -5 6 2 15 7 8 14 15 16 15 2 0 1 -7 -2 -15z m-84
-88 c0 -2 -10 -12 -22 -23 l-23 -19 19 23 c18 21 26 27 26 19z m2550 -24 c72
-37 109 -96 116 -185 4 -50 1 -71 -15 -103 l-19 -40 -1 48 c-1 27 -8 64 -17
83 -20 41 -38 56 -24 19 14 -38 12 -88 -5 -121 -15 -29 -15 -28 -15 32 0 51
-5 67 -29 101 -33 45 -109 88 -141 79 -11 -3 -30 -8 -42 -11 -22 -5 -21 -5 2
9 14 9 42 15 63 16 41 0 48 13 17 30 -27 14 -26 40 3 41 12 0 16 3 9 6 -6 2
-10 9 -6 14 10 16 50 9 104 -18z m-2666 -55 c-5 -8 -2 -9 9 -5 23 9 21 0 -2
-13 -16 -8 -19 -7 -16 8 5 23 4 22 11 22 3 0 2 -5 -2 -12z m4189 -65 c-7 -2
-19 -2 -25 0 -7 3 -2 5 12 5 14 0 19 -2 13 -5z m-2823 -17 c0 -17 -26 -39 -40
-34 -6 2 -4 12 5 26 18 25 35 29 35 8z m1068 -31 c14 1 22 -4 23 -14 0 -10 2
-12 6 -3 8 21 24 13 18 -10 -2 -13 -7 -45 -10 -73 -5 -48 -4 -51 35 -86 56
-51 53 -63 -16 -56 -64 7 -100 27 -116 65 -15 36 -19 102 -8 127 5 11 15 34
21 50 9 23 13 26 18 14 3 -9 16 -15 29 -14z m-1184 -41 c-15 -13 -30 -21 -32
-19 -10 9 12 47 31 54 33 13 34 -9 1 -35z m1613 24 c-3 -8 -6 -5 -6 6 -1 11 2
17 5 13 3 -3 4 -12 1 -19z m-1706 -47 c-20 -20 -21 -20 -21 -2 0 11 8 21 18
23 25 6 26 2 3 -21z m1716 -3 c-3 -8 -6 -5 -6 6 -1 11 2 17 5 13 3 -3 4 -12 1
-19z m1898 -38 c3 -5 1 -10 -4 -10 -6 0 -11 5 -11 10 0 6 2 10 4 10 3 0 8 -4
11 -10z m25 -30 c0 -5 -4 -10 -10 -10 -5 0 -10 5 -10 10 0 6 5 10 10 10 6 0
10 -4 10 -10z m20 -25 c0 -8 3 -15 8 -15 11 0 33 -40 27 -49 -9 -15 -45 0 -45
19 0 10 -5 20 -12 22 -14 5 -4 38 12 38 5 0 10 -7 10 -15z m-1695 -14 c56 -21
67 -42 33 -59 -13 -6 -17 -11 -10 -11 6 -1 12 -8 12 -16 0 -12 -5 -13 -27 -3
-16 7 -37 18 -48 26 -19 13 -19 14 5 8 23 -5 23 -4 -2 6 -16 7 -28 16 -28 20
0 8 32 3 80 -14 l25 -8 -24 20 c-13 11 -32 20 -42 20 -10 0 -19 5 -19 11 0 6
-7 8 -16 5 -8 -3 -12 -2 -9 4 8 13 12 13 70 -9z m1225 -31 c10 -6 2 -7 -25 -3
-49 7 -58 13 -19 13 16 0 36 -5 44 -10z m29 -26 c8 -7 -94 -2 -119 6 -15 5 4
6 45 3 39 -3 72 -7 74 -9z m494 -4 c-5 -19 -23 -29 -23 -12 0 7 20 32 26 32 1
0 0 -9 -3 -20z m-1926 -22 c-3 -8 -6 -5 -6 6 -1 11 2 17 5 13 3 -3 4 -12 1
-19z m148 -8 c28 -13 45 -25 39 -27 -10 -3 -104 44 -104 53 0 3 3 3 8 1 4 -2
30 -14 57 -27z m1363 7 c7 0 12 -9 10 -21 -3 -19 -9 -21 -78 -20 -42 1 -101 4
-132 8 -50 6 -55 9 -51 27 6 20 10 21 122 13 64 -4 122 -7 129 -7z m437 -18
c-4 -10 -2 -19 3 -19 6 0 12 5 14 12 2 6 10 8 17 4 7 -5 10 -14 7 -22 -3 -8 0
-14 7 -14 7 0 18 -9 25 -20 7 -12 8 -20 2 -20 -5 0 -10 5 -10 11 0 8 -6 7 -17
-2 -15 -12 -16 -12 -10 4 3 9 2 17 -4 17 -6 0 -8 9 -4 23 7 21 6 21 -7 3 -14
-18 -15 -18 -31 4 -8 12 -13 29 -10 36 8 21 25 5 18 -17z m-1968 -1 c-3 -8 -6
-5 -6 6 -1 11 2 17 5 13 3 -3 4 -12 1 -19z m140 -14 c-3 -3 -12 -4 -19 -1 -8
3 -5 6 6 6 11 1 17 -2 13 -5z m-2112 -51 c-14 -27 -25 -55 -26 -63 0 -10 -3
-8 -8 5 -9 22 2 61 26 87 30 33 34 18 8 -29z m2085 27 c-9 -6 -9 -9 1 -13 10
-4 9 -6 -3 -6 -11 -1 -16 6 -15 18 1 12 6 17 15 14 10 -4 11 -8 2 -13z m75 8
c14 -6 25 -16 25 -22 0 -6 -5 -5 -12 2 -7 7 -19 12 -27 12 -12 0 -10 -5 6 -18
22 -16 22 -18 6 -52 -9 -19 -18 -36 -19 -38 -1 -2 -15 4 -31 13 l-28 16 28 -6
c15 -3 27 -1 27 5 0 5 -7 10 -15 10 -8 0 -15 9 -15 20 0 11 5 20 11 20 5 0 7
-5 3 -11 -3 -6 0 -15 7 -20 21 -13 25 -11 26 11 1 11 -2 20 -6 20 -4 0 -16 7
-27 15 -13 11 -14 14 -4 13 8 -2 14 3 13 10 -4 15 0 15 32 0z m-197 -33 c-14
-31 -18 -28 -11 7 3 15 9 25 14 23 4 -3 3 -17 -3 -30z m931 -17 c45 -27 46
-28 60 -93 10 -46 10 -58 -4 -84 -21 -42 -36 -39 -23 5 5 20 7 42 4 50 -3 7
-1 16 5 19 16 11 0 23 -23 17 -17 -4 -20 -2 -15 11 11 28 -22 20 -35 -9 l-12
-25 -13 25 c-10 19 -22 26 -43 26 -41 0 -46 17 -14 51 33 35 64 37 113 7z
m-809 -8 c13 -9 13 -10 0 -10 -8 0 -22 5 -30 10 -13 9 -13 10 0 10 8 0 22 -5
30 -10z m1930 -10 c0 -5 -2 -10 -4 -10 -3 0 -8 5 -11 10 -3 6 -1 10 4 10 6 0
11 -4 11 -10z m-1955 -10 c3 -5 1 -10 -4 -10 -6 0 -11 5 -11 10 0 6 2 10 4 10
3 0 8 -4 11 -10z m-1926 -32 c0 -28 -2 -30 -9 -13 -8 18 -9 18 -9 -5 -2 -40
-12 -68 -27 -74 -11 -4 -13 1 -8 22 13 60 26 92 35 87 5 -4 9 -1 9 4 0 6 2 11
5 11 3 0 5 -15 4 -32z m3294 19 c4 -10 -8 -14 -46 -14 l-52 -1 45 7 45 7 -35
5 -35 6 36 1 c23 1 39 -3 42 -11z m-1327 -33 c13 -3 24 -14 24 -23 0 -10 -3
-12 -8 -5 -4 7 -23 19 -42 28 -19 9 -27 14 -17 11 11 -3 30 -8 43 -11z m1974
9 c0 -5 -4 -14 -9 -21 -6 -10 -10 -9 -14 7 -3 14 0 21 9 21 8 0 14 -3 14 -7z
m-653 -9 c-3 -3 -12 -4 -19 -1 -8 3 -5 6 6 6 11 1 17 -2 13 -5z m-1342 -34 c8
-13 -5 -13 -25 0 -13 8 -13 10 2 10 9 0 20 -4 23 -10z m1313 3 c-10 -2 -26 -2
-35 0 -10 3 -2 5 17 5 19 0 27 -2 18 -5z m-771 -38 c-5 -40 -17 -41 -17 -1 0
23 4 35 10 31 6 -4 9 -17 7 -30z m-584 10 c-3 -9 -8 -14 -10 -11 -3 3 -2 9 2
15 9 16 15 13 8 -4z m70 -5 c-6 -24 -12 -24 -38 -4 -20 16 -20 16 3 9 13 -4
22 -2 22 4 0 6 4 11 9 11 5 0 7 -9 4 -20z m-28 -48 c-4 -9 -12 -29 -17 -44 -5
-16 -15 -28 -20 -28 -6 0 -5 6 2 15 11 13 10 18 -6 30 -18 14 -18 15 0 9 27
-10 39 16 18 40 -16 18 -16 18 6 7 16 -9 21 -18 17 -29z m-114 -19 c-12 -20
-14 -14 -5 12 4 9 9 14 11 11 3 -2 0 -13 -6 -23z m-6 -33 c3 -5 1 -10 -4 -10
-6 0 -11 5 -11 10 0 6 2 10 4 10 3 0 8 -4 11 -10z m875 -11 c0 -5 5 -7 10 -4
14 9 12 -19 -2 -33 -24 -24 -98 -7 -98 23 0 7 6 16 13 18 23 10 77 7 77 -4z
m-3114 -266 c-8 -9 -36 80 -35 115 0 31 3 25 20 -37 10 -41 17 -76 15 -78z
m3269 44 c-39 -25 -215 -55 -255 -42 -41 13 -18 25 48 25 37 1 96 7 132 14 88
18 99 19 75 3z m-89 -155 c-9 -8 -26 10 -26 26 1 15 2 15 15 -2 8 -11 13 -21
11 -24z m-1268 -82 c-7 -10 -14 -18 -15 -16 -6 6 9 36 18 36 5 0 4 -9 -3 -20z
m1258 -74 c-15 -51 -19 -55 -71 -77 -30 -13 -55 -27 -55 -31 0 -8 60 11 78 25
9 7 12 2 11 -19 0 -16 -3 -24 -5 -17 -3 7 -12 9 -20 6 -11 -4 -12 -9 -3 -19 9
-11 7 -14 -10 -14 -15 0 -20 4 -15 13 6 9 4 9 -7 1 -14 -12 -55 -17 -119 -16
-19 1 -29 -2 -23 -6 7 -4 -7 -8 -30 -8 -32 -1 -37 1 -22 7 18 8 -4 7 -112 -6
-13 -1 -23 1 -23 6 0 4 34 13 75 20 41 7 70 16 63 20 -7 5 -1 10 18 14 16 4
39 11 52 16 13 5 32 9 42 9 10 0 23 6 27 13 4 7 29 23 56 36 53 27 64 37 69
66 1 10 10 26 18 35 14 14 15 14 18 -2 2 -10 -4 -42 -12 -72z m-2176 0 c116
-94 119 -97 113 -112 -3 -8 1 -14 11 -14 10 0 13 -6 9 -16 -3 -9 -9 -12 -12
-7 -7 10 -34 26 -79 49 -19 9 -40 28 -49 40 -8 13 -20 24 -27 24 -23 0 -81 65
-82 92 -2 25 0 27 20 17 11 -7 55 -39 96 -73z m1111 16 c-11 -23 -26 -44 -31
-47 -6 -4 2 16 17 43 33 59 44 62 14 4z m-241 -25 c-12 -17 -20 -27 -17 -22
21 54 32 74 35 65 2 -6 -6 -25 -18 -43z m200 13 c-6 -11 -13 -20 -16 -20 -2 0
0 9 6 20 6 11 13 20 16 20 2 0 0 -9 -6 -20z m-1444 -54 c3 -8 -9 -34 -27 -58
-17 -23 -28 -34 -24 -23 5 11 10 37 13 58 4 37 27 51 38 23z m272 -115 c17
-16 32 -32 32 -35 0 -13 -21 -5 -41 17 -12 12 -19 16 -15 10 13 -23 -2 -14
-46 27 -24 22 -46 40 -50 40 -5 0 -8 5 -8 10 0 15 89 -33 128 -69z m3951 63
c13 -13 -10 -12 -35 2 l-29 16 30 -7 c16 -4 32 -9 34 -11z m-4099 -26 c0 -4 4
-8 10 -8 5 0 19 -8 29 -17 11 -9 27 -18 35 -19 15 -2 86 -51 98 -69 12 -16 9
-63 -4 -71 -7 -4 -8 -3 -4 5 12 19 -23 64 -45 58 -19 -5 -177 89 -166 99 3 3
30 -11 61 -31 31 -19 56 -31 56 -26 0 5 -9 13 -20 16 -11 3 -20 11 -20 16 0 5
-6 8 -12 7 -7 -2 -12 3 -10 10 1 8 -1 11 -5 9 -11 -7 -38 14 -46 35 -5 15 -3
16 18 6 14 -6 25 -15 25 -20z m4140 -29 c0 -6 -4 -7 -10 -4 -5 3 -10 11 -10
16 0 6 5 7 10 4 6 -3 10 -11 10 -16z m-2151 -3 c-9 -10 -59 -14 -54 -5 4 5 18
9 32 9 15 0 24 -2 22 -4z m2226 -146 c14 -27 14 -29 0 -23 -9 3 -14 8 -11 11
3 2 1 13 -5 23 -5 11 -7 19 -5 19 3 0 12 -13 21 -30z m-2158 -2 c-3 -8 -6 -5
-6 6 -1 11 2 17 5 13 3 -3 4 -12 1 -19z m-32 -31 c-14 -34 -30 -53 -20 -24 19
54 26 69 30 65 3 -3 -2 -21 -10 -41z m55 -15 c0 -18 -31 -24 -46 -9 -7 6 10
11 29 8 4 0 7 4 7 9 0 6 2 10 5 10 3 0 5 -8 5 -18z m25 8 c-3 -5 -1 -10 5 -10
6 0 8 -5 5 -10 -4 -6 -11 -8 -16 -5 -12 8 -11 35 2 35 5 0 7 -4 4 -10z m39 -5
c3 -8 1 -15 -3 -15 -5 0 -11 7 -15 15 -3 8 -1 15 3 15 5 0 11 -7 15 -15z m73
9 c-3 -3 -12 -4 -19 -1 -8 3 -5 6 6 6 11 1 17 -2 13 -5z m-306 -27 c-10 -9
-11 -8 -5 6 3 10 9 15 12 12 3 -3 0 -11 -7 -18z m-1756 -7 c3 -5 1 -10 -4 -10
-6 0 -11 5 -11 10 0 6 2 10 4 10 3 0 8 -4 11 -10z m-296 -75 c90 -55 227 -116
290 -130 18 -4 28 -11 25 -17 -5 -7 2 -9 19 -6 17 3 32 0 39 -9 10 -12 7 -13
-18 -8 -16 3 -39 8 -52 11 -13 2 -20 9 -17 14 3 6 2 10 -4 10 -5 0 -11 -6 -14
-12 -3 -9 -8 -10 -18 -3 -8 6 -32 17 -54 24 -60 20 -220 108 -266 147 -59 49
-35 42 70 -21z m2311 43 c0 -30 -14 -59 -25 -55 -8 4 -15 -18 -23 -67 -11 -73
-34 -131 -45 -119 -4 3 -7 1 -7 -6 0 -7 -4 -9 -10 -6 -5 3 -10 2 -10 -4 0 -5
9 -12 19 -16 11 -3 18 -12 15 -19 -3 -7 2 -20 10 -29 9 -9 16 -33 17 -54 1
-49 -18 -220 -26 -233 -8 -13 -42 -13 -50 0 -3 5 -1 56 5 112 9 94 9 104 -7
116 -13 9 -19 10 -22 1 -2 -6 2 -15 9 -19 30 -19 -16 -19 -125 0 -138 24 -155
24 -155 6 0 -9 19 -15 58 -20 89 -10 177 -27 191 -35 11 -7 11 -15 0 -44 -12
-35 -13 -36 -42 -21 -16 9 -36 13 -45 9 -9 -3 -13 -3 -10 1 10 9 -17 34 -36
34 -9 0 -16 5 -16 12 0 9 -3 9 -12 0 -7 -7 -17 -8 -28 -2 -14 7 -19 5 -23 -10
-4 -17 -2 -18 15 -9 19 10 20 9 16 -20 -2 -17 -1 -31 4 -31 4 0 9 7 9 15 3 31
4 35 12 35 4 0 14 0 24 0 9 0 14 -3 10 -6 -10 -10 23 -37 50 -40 41 -5 39 -14
-3 -15 -23 -1 -30 -4 -16 -6 12 -2 22 -9 22 -14 0 -5 12 -9 27 -9 32 0 28 -5
-10 -14 -18 -4 -26 -3 -23 3 4 5 -11 9 -36 9 -24 0 -67 4 -95 9 -43 8 -53 7
-53 -3 0 -20 -27 -17 -35 4 -10 25 -11 212 -2 212 5 0 6 4 2 9 -3 5 5 13 17
16 19 7 17 9 -18 21 -21 8 -46 14 -55 14 -25 0 -69 24 -69 38 0 8 5 10 12 6 6
-4 29 -8 50 -8 32 -1 36 1 22 11 -9 6 -14 16 -11 21 3 4 -5 21 -19 36 -15 16
-23 33 -20 43 4 11 2 14 -9 9 -21 -8 -19 -1 10 29 28 28 37 30 63 15 60 -33
205 -100 217 -100 7 0 16 -6 18 -12 3 -8 6 -8 6 -2 1 6 -27 29 -61 51 -35 22
-74 50 -86 61 -13 12 -29 23 -35 25 -9 3 -9 8 0 17 13 14 58 8 200 -23 51 -12
60 -12 56 -1 -3 8 -13 14 -22 14 -10 0 -26 6 -36 14 -18 13 -14 15 40 20 33 4
84 11 114 16 29 5 57 7 62 4 5 -3 9 0 9 5 0 6 5 11 10 11 6 0 10 -6 10 -12z
m2095 -8 c3 -6 -1 -7 -9 -4 -18 7 -21 14 -7 14 6 0 13 -4 16 -10z m17 -27 c-6
-3 -10 -9 -6 -14 3 -5 0 -9 -7 -9 -6 0 -3 -8 8 -17 10 -10 14 -15 9 -10 -14
10 -28 9 -21 -3 3 -5 1 -10 -6 -10 -7 0 -4 -7 7 -15 10 -8 15 -15 11 -15 -4 0
-3 -9 3 -20 7 -14 7 -20 0 -20 -5 0 -10 7 -10 15 0 28 -1 30 -23 42 -12 7 -16
12 -9 13 7 0 10 5 7 10 -3 6 0 10 7 10 9 0 9 3 -2 10 -12 7 -12 10 -1 10 7 0
11 6 8 13 -3 8 3 13 17 14 11 0 15 -1 8 -4z m-4522 -93 c8 -5 12 -11 10 -14
-3 -2 -14 2 -24 10 -22 15 -10 19 14 4z m424 -21 c-3 -5 0 -9 7 -9 7 0 9 -3 6
-6 -4 -4 -21 -1 -38 6 -28 12 -29 15 -13 20 23 9 46 2 38 -11z m-119 -120
c122 -42 129 -50 15 -18 -73 20 -240 92 -240 103 0 3 26 -6 58 -21 31 -14 107
-43 167 -64z m4244 42 c6 -19 9 -37 6 -40 -8 -7 -25 21 -19 31 3 4 -3 8 -13 8
-13 0 -15 3 -5 8 7 5 10 16 6 28 -5 13 -4 16 3 9 6 -5 15 -25 22 -44z m-2784
-151 c3 -5 1 -10 -4 -10 -6 0 -11 5 -11 10 0 6 2 10 4 10 3 0 8 -4 11 -10z
m35 -4 c0 -3 -4 -8 -10 -11 -5 -3 -10 -1 -10 4 0 6 5 11 10 11 6 0 10 -2 10
-4z m53 -23 c-7 -2 -19 -2 -25 0 -7 3 -2 5 12 5 14 0 19 -2 13 -5z m514 -55
c-3 -7 -5 -2 -5 12 0 14 2 19 5 13 2 -7 2 -19 0 -25z m-470 -70 c-3 -8 -6 -5
-6 6 -1 11 2 17 5 13 3 -3 4 -12 1 -19z m-147 -8 c0 -5 -2 -10 -4 -10 -3 0 -8
5 -11 10 -3 6 -1 10 4 10 6 0 11 -4 11 -10z m611 -63 c-8 -8 -11 -1 -11 24 0
46 14 60 18 19 2 -18 -1 -37 -7 -43z m-531 53 c0 -13 -30 -13 -50 0 -11 7 -7
10 18 10 17 0 32 -4 32 -10z m377 -6 c-3 -3 -12 -4 -19 -1 -8 3 -5 6 6 6 11 1
17 -2 13 -5z m-1167 -35 c-7 -11 -14 -18 -17 -15 -3 3 0 12 7 21 18 21 23 19
10 -6z m740 -6 c0 -12 -3 -14 -8 -7 -4 7 -16 14 -27 17 -15 4 -14 5 8 6 20 1
27 -4 27 -16z m-151 -109 c14 -12 -19 -1 -35 12 -18 14 -18 14 6 3 14 -6 27
-13 29 -15z m56 -149 c22 -13 36 -24 30 -24 -5 0 -28 11 -50 24 -22 14 -35 25
-30 25 6 0 28 -11 50 -25z m214 -89 c109 -35 131 -47 66 -39 -49 6 -209 75
-221 95 -3 5 11 1 32 -10 22 -11 77 -32 123 -46z m226 -55 c-11 -5 -38 -5 -60
-1 -38 7 -36 8 20 8 40 1 53 -2 40 -7z"/>
<path d="M3520 5369 c0 -11 -4 -17 -10 -14 -5 3 -10 -2 -10 -12 0 -10 -9 -32
-19 -49 -29 -47 -12 -64 33 -33 20 13 31 26 26 27 -6 2 -10 8 -10 13 0 6 5 7
11 3 9 -5 10 1 5 22 -4 16 -8 37 -9 47 -2 24 -17 21 -17 -4z"/>
<path d="M3415 5321 c-10 -17 -13 -91 -4 -91 5 0 9 5 9 11 0 7 7 17 16 23 11
8 13 20 9 39 -7 27 -19 35 -30 18z"/>
<path d="M3352 5240 c0 -14 2 -19 5 -12 2 6 2 18 0 25 -3 6 -5 1 -5 -13z"/>
<path d="M3435 5239 c-4 -6 -5 -12 -2 -15 2 -3 7 2 10 11 7 17 1 20 -8 4z"/>
<path d="M3600 4852 c0 -6 -7 -9 -15 -6 -8 4 -15 1 -15 -5 0 -6 10 -15 23 -20
12 -5 29 -21 36 -35 8 -14 18 -26 23 -26 13 0 9 16 -6 30 -8 6 -13 17 -10 24
3 7 -4 21 -16 31 -11 10 -20 13 -20 7z"/>
<path d="M5546 4434 c-4 -14 -5 -28 -3 -31 3 -2 8 8 11 23 4 14 5 28 3 31 -3
2 -8 -8 -11 -23z"/>
<path d="M5581 4434 c0 -11 3 -14 6 -6 3 7 2 16 -1 19 -3 4 -6 -2 -5 -13z"/>
<path d="M5420 4413 c17 -5 81 -33 93 -40 4 -2 7 0 7 5 0 10 -78 42 -100 41
-13 0 -13 -1 0 -6z"/>
<path d="M5659 4360 c-16 -19 -36 -44 -45 -55 -12 -16 -15 -16 -10 -3 3 10 0
20 -6 24 -7 4 -8 3 -4 -4 4 -7 2 -12 -4 -12 -7 0 -10 -6 -7 -14 3 -8 -1 -17
-9 -20 -8 -3 -14 -13 -14 -23 0 -15 2 -16 10 -3 8 13 10 13 10 -2 0 -9 -5 -20
-10 -23 -6 -4 -8 -10 -5 -14 2 -5 -2 -23 -11 -40 -11 -21 -14 -43 -9 -64 3
-18 9 -49 12 -69 3 -21 9 -38 14 -38 4 0 6 7 3 15 -4 8 -1 15 5 15 6 0 11 -6
11 -14 0 -9 9 -12 28 -10 15 2 19 1 10 -2 -10 -3 -18 -13 -18 -22 0 -14 2 -14
9 -3 5 7 13 11 19 7 5 -3 13 2 18 12 6 13 9 9 13 -18 6 -35 7 -35 31 -22 23
13 23 13 3 9 -17 -4 -23 -1 -23 11 0 12 9 17 30 18 16 1 27 -3 23 -8 -3 -6 4
-5 15 1 15 8 21 8 24 -1 3 -8 14 -8 42 2 27 9 68 10 140 5 l101 -6 26 28 c25
26 58 108 74 181 11 54 -2 36 -25 -35 -13 -38 -29 -75 -36 -84 -8 -8 -14 -24
-14 -33 0 -15 -6 -17 -37 -13 -41 5 -267 75 -323 101 l-35 15 40 -6 c22 -3 99
-23 172 -44 72 -22 139 -39 150 -38 18 0 -82 35 -227 79 -41 13 -79 26 -83 30
-4 4 -5 19 -1 34 4 19 11 25 22 21 12 -4 13 -3 2 10 -10 12 -10 15 2 15 8 0
18 -4 24 -10 15 -15 155 -62 272 -90 26 -7 31 -6 22 5 -6 7 -27 16 -48 20 -62
11 -238 70 -270 90 -7 5 21 65 31 65 19 0 117 -34 117 -40 0 -4 18 -7 40 -7
22 0 40 1 40 2 0 2 -24 10 -52 19 -29 9 -62 21 -73 26 -26 11 -86 30 -96 30
-5 0 -17 -30 -29 -67 -22 -74 -46 -121 -34 -68 4 17 12 48 19 70 7 22 16 54
19 70 6 29 5 31 -24 30 -23 0 -39 -9 -61 -35z"/>
<path d="M5419 4382 c11 -8 11 -11 0 -16 -8 -3 -5 -4 7 -1 29 7 51 -3 57 -27
3 -11 10 -17 16 -13 7 4 11 -3 11 -16 0 -12 3 -20 6 -16 3 3 3 20 -1 37 -4 17
-9 29 -13 26 -3 -3 -12 0 -21 8 -9 8 -29 17 -46 21 -20 5 -26 4 -16 -3z"/>
<path d="M5531 4383 c-1 -6 -4 -20 -7 -30 -5 -17 -5 -17 6 0 6 10 9 23 6 30
-3 9 -5 9 -5 0z"/>
<path d="M5391 4300 c-9 -5 -4 -9 13 -12 14 -3 26 -2 26 2 0 12 -26 19 -39 10z"/>
<path d="M5810 4274 c0 -9 6 -14 13 -11 6 2 29 -2 51 -9 47 -17 43 -17 49 0 4
10 1 13 -9 9 -8 -3 -32 2 -54 11 -50 20 -50 20 -50 0z"/>
<path d="M5440 4251 c0 -5 7 -11 15 -15 8 -3 15 -1 15 3 0 5 -7 11 -15 15 -8
3 -15 1 -15 -3z"/>
<path d="M6083 4240 c-1 -11 2 -20 6 -20 5 0 11 9 14 20 3 12 0 20 -7 20 -6 0
-12 -9 -13 -20z"/>
<path d="M5380 4230 c8 -5 22 -10 30 -10 13 0 13 1 0 10 -8 5 -22 10 -30 10
-13 0 -13 -1 0 -10z"/>
<path d="M5970 4230 c14 -9 68 -15 59 -6 -3 3 -20 8 -39 11 -25 4 -31 3 -20
-5z"/>
<path d="M5764 4202 c4 -6 23 -14 42 -18 25 -5 34 -11 30 -21 -3 -8 -2 -11 4
-8 5 3 21 3 35 -1 20 -5 23 -9 13 -15 -7 -5 -8 -9 -3 -9 6 0 17 5 25 10 11 7
2 15 -40 34 -68 31 -116 43 -106 28z"/>
<path d="M5430 4180 c0 -5 5 -10 11 -10 5 0 7 5 4 10 -3 6 -8 10 -11 10 -2 0
-4 -4 -4 -10z"/>
<path d="M5365 4170 c3 -4 14 -10 25 -13 11 -3 18 -2 15 3 -3 4 -14 10 -25 13
-11 3 -18 2 -15 -3z"/>
<path d="M5133 4115 c0 -27 2 -38 4 -22 2 15 2 37 0 50 -2 12 -4 0 -4 -28z"/>
<path d="M5335 4152 c16 -13 67 -33 61 -23 -3 5 -20 14 -38 20 -18 6 -28 8
-23 3z"/>
<path d="M5425 4140 c3 -5 8 -10 11 -10 2 0 4 5 4 10 0 6 -5 10 -11 10 -5 0
-7 -4 -4 -10z"/>
<path d="M5980 4130 c8 -5 24 -10 34 -10 26 0 18 6 -19 14 -22 5 -26 4 -15 -4z"/>
<path d="M5330 4122 c0 -4 10 -9 22 -9 18 -2 20 0 8 7 -18 12 -30 13 -30 2z"/>
<path d="M5325 4090 c3 -5 8 -10 11 -10 2 0 4 5 4 10 0 6 -5 10 -11 10 -5 0
-7 -4 -4 -10z"/>
<path d="M5141 3964 c0 -11 3 -14 6 -6 3 7 2 16 -1 19 -3 4 -6 -2 -5 -13z"/>
<path d="M5796 3964 c-11 -8 -16 -14 -10 -14 13 0 39 18 34 24 -3 2 -14 -2
-24 -10z"/>
<path d="M5525 3930 c-3 -5 1 -10 10 -10 9 0 13 5 10 10 -3 6 -8 10 -10 10 -2
0 -7 -4 -10 -10z"/>
<path d="M5666 3914 c-11 -7 -16 -17 -13 -21 4 -4 15 1 24 10 22 21 14 30 -11
11z"/>
<path d="M6015 3769 c-4 -6 -5 -13 -2 -16 7 -7 27 6 27 18 0 12 -17 12 -25 -2z"/>
<path d="M5378 2273 c7 -3 16 -2 19 1 4 3 -2 6 -13 5 -11 0 -14 -3 -6 -6z"/>
<path d="M5513 2248 c26 -6 47 -14 47 -19 0 -5 14 -9 32 -9 19 0 28 4 23 9
-11 10 -107 32 -133 30 -9 -1 4 -6 31 -11z"/>
<path d="M5464 2171 c3 -5 15 -11 26 -14 17 -4 19 -3 9 9 -12 15 -44 20 -35 5z"/>
<path d="M5398 2063 c7 -3 16 -2 19 1 4 3 -2 6 -13 5 -11 0 -14 -3 -6 -6z"/>
<path d="M7506 8692 c-4 -7 -16 -10 -26 -7 -12 4 -22 -1 -29 -12 -6 -10 -11
-13 -11 -6 0 20 -51 -33 -61 -64 -9 -27 -9 -27 -4 5 l5 33 -25 -18 c-13 -10
-25 -27 -26 -38 -1 -17 -2 -16 -9 5 -7 23 -8 23 -9 3 -1 -22 -21 -44 -21 -22
0 8 -4 8 -15 -1 -8 -7 -15 -19 -15 -27 0 -8 -5 -11 -10 -8 -6 3 -13 -1 -16 -9
-3 -9 -12 -16 -20 -16 -8 0 -19 -9 -26 -20 -7 -11 -20 -20 -28 -20 -17 0 -50
-34 -50 -50 0 -17 -18 -11 -23 8 -4 16 -5 16 -6 0 0 -10 -6 -18 -12 -18 -5 0
-7 -4 -4 -10 3 -5 1 -10 -4 -10 -6 0 -11 -7 -11 -15 0 -8 -4 -15 -8 -15 -8 0
-16 -14 -40 -62 -2 -5 3 -8 12 -8 9 0 16 -5 16 -11 0 -5 5 -7 11 -3 7 4 7 -2
-1 -17 -7 -13 -9 -21 -5 -17 4 4 14 0 22 -8 9 -8 22 -13 31 -9 13 5 13 3 1
-11 -13 -16 -12 -16 9 -5 12 6 22 21 22 31 0 11 5 20 10 20 6 0 10 8 10 18 0
14 2 15 10 2 8 -12 10 -10 10 8 0 13 4 21 9 18 5 -4 12 7 16 23 3 16 13 35 21
42 8 6 14 18 14 26 0 8 4 12 9 9 5 -4 12 0 14 6 3 7 6 4 7 -7 1 -20 1 -20 15
-1 9 12 15 15 15 7 0 -8 25 12 55 45 40 42 52 60 43 67 -9 5 -6 7 7 3 15 -4
34 9 75 49 30 30 48 55 41 55 -11 0 -10 5 3 19 10 11 16 28 14 38 -3 13 -6 15
-12 5z m-178 -237 c-3 -3 -9 2 -12 12 -6 14 -5 15 5 6 7 -7 10 -15 7 -18z"/>
<path d="M5870 8497 c0 -14 5 -29 10 -32 7 -4 8 3 4 22 -9 38 -14 42 -14 10z"/>
<path d="M5900 8495 c0 -8 4 -15 9 -15 5 0 11 7 15 15 3 9 0 15 -9 15 -8 0
-15 -7 -15 -15z"/>
<path d="M7405 8500 c-3 -5 -1 -10 4 -10 6 0 11 5 11 10 0 6 -2 10 -4 10 -3 0
-8 -4 -11 -10z"/>
<path d="M5737 8470 c3 -11 9 -20 13 -20 5 0 6 9 3 20 -3 11 -9 20 -13 20 -5
0 -6 -9 -3 -20z"/>
<path d="M5911 8454 c0 -11 3 -14 6 -6 3 7 2 16 -1 19 -3 4 -6 -2 -5 -13z"/>
<path d="M5850 8409 c0 -5 -4 -7 -10 -4 -16 10 -11 -1 7 -16 14 -12 15 -12 9
0 -7 10 -3 12 15 6 21 -7 22 -6 7 9 -19 19 -28 20 -28 5z"/>
<path d="M5703 8375 c14 -29 27 -33 27 -7 1 14 3 14 20 -6 13 -15 21 -19 26
-11 10 17 -38 52 -49 36 -7 -9 -10 -9 -14 1 -2 6 -8 12 -13 12 -4 0 -3 -11 3
-25z"/>
<path d="M5790 8389 c0 -5 5 -7 10 -4 6 3 10 8 10 11 0 2 -4 4 -10 4 -5 0 -10
-5 -10 -11z"/>
<path d="M5810 8149 c0 -5 5 -7 10 -4 6 3 10 8 10 11 0 2 -4 4 -10 4 -5 0 -10
-5 -10 -11z"/>
<path d="M5830 8130 c0 -5 5 -10 11 -10 5 0 7 5 4 10 -3 6 -8 10 -11 10 -2 0
-4 -4 -4 -10z"/>
<path d="M8436 8010 c-4 -44 -12 -82 -17 -85 -5 -4 -9 -1 -9 6 0 7 -2 10 -5 7
-3 -3 2 -43 10 -89 8 -46 15 -137 15 -201 0 -111 -1 -118 -26 -147 -14 -17
-30 -28 -36 -25 -6 4 -14 0 -19 -7 -8 -12 -11 -12 -19 1 -5 8 -10 11 -10 5 -1
-25 -22 31 -40 111 -24 103 -103 341 -132 398 l-20 40 -14 -33 c-8 -18 -11
-37 -8 -42 3 -5 -2 -16 -10 -25 -19 -18 -21 -38 -3 -28 6 5 -1 -9 -17 -31 -24
-30 -26 -37 -11 -31 18 6 18 6 2 -12 -9 -10 -14 -22 -10 -25 3 -4 -1 -15 -9
-24 -16 -18 -46 -96 -54 -141 -3 -13 -18 -51 -34 -85 -16 -33 -27 -64 -24 -69
3 -4 1 -8 -3 -8 -9 0 -25 -29 -67 -122 -14 -31 -31 -59 -38 -61 -7 -3 -4 -6 7
-6 20 -1 19 -2 -1 -19 -27 -21 -41 -62 -22 -62 7 0 2 -9 -12 -20 -14 -11 -21
-20 -16 -20 5 0 3 -6 -3 -14 -9 -11 -9 -15 1 -19 7 -3 2 -6 -11 -6 -24 -1 -24
-1 -5 -16 12 -9 14 -14 5 -15 -9 0 -12 -9 -9 -30 2 -16 0 -31 -6 -33 -6 -2 -6
-9 -1 -18 5 -8 9 -24 10 -36 0 -12 3 -25 8 -29 4 -4 7 -15 7 -25 0 -9 6 -20
13 -22 7 -3 8 -6 1 -6 -8 -1 -9 -14 -3 -43 4 -26 4 -44 -2 -46 -6 -3 -5 -10 2
-18 7 -8 9 -17 6 -21 -4 -3 -2 -12 4 -20 9 -10 8 -13 -1 -13 -9 0 -9 -4 -3
-12 6 -7 9 -23 8 -35 -1 -12 5 -25 12 -28 9 -3 12 -12 8 -24 -3 -10 -1 -30 4
-45 8 -18 7 -26 -1 -26 -6 0 -5 -7 5 -18 10 -10 13 -23 8 -32 -11 -20 -8 -49
8 -78 7 -13 15 -35 17 -49 3 -14 15 -34 27 -44 13 -10 16 -18 9 -19 -8 0 -6
-7 7 -22 11 -11 18 -26 14 -31 -3 -6 2 -16 12 -24 18 -13 18 -13 -1 -13 -19
-1 -19 -1 0 -15 14 -11 16 -15 5 -15 -11 -1 -11 -3 2 -13 21 -16 24 -28 7 -38
-9 -6 -10 -11 -2 -16 17 -13 24 -41 11 -46 -8 -3 -5 -10 8 -21 15 -12 16 -15
5 -16 -13 0 -13 -1 0 -11 12 -8 12 -12 2 -16 -10 -4 -9 -8 5 -19 13 -9 14 -13
4 -14 -11 0 -11 -3 -1 -15 10 -13 9 -15 -11 -16 l-24 -1 25 -7 25 -7 -30 -11
c-29 -11 -29 -11 -5 -13 14 -1 19 -4 13 -7 -19 -7 -16 -23 4 -23 15 0 15 -1
-2 -13 -10 -8 -15 -19 -11 -25 4 -6 -5 -12 -21 -15 l-28 -4 27 -2 c20 -1 26
-5 22 -16 -9 -21 18 -19 45 4 12 11 22 22 22 25 -3 21 2 28 25 38 14 7 32 25
40 40 8 15 23 28 33 28 9 0 24 11 31 25 8 14 18 24 24 22 12 -4 36 37 36 60 0
8 4 12 9 8 18 -11 73 73 156 240 120 243 181 449 220 740 14 104 17 169 12
330 -4 110 -11 232 -17 270 -25 177 -92 383 -129 396 -13 6 -19 15 -16 29 2
11 0 20 -4 20 -5 0 -12 -36 -15 -80z"/>
<path d="M6000 8060 c0 -5 5 -10 11 -10 5 0 7 5 4 10 -3 6 -8 10 -11 10 -2 0
-4 -4 -4 -10z"/>
<path d="M7995 8000 c2 -4 -5 -21 -15 -38 -11 -17 -21 -41 -22 -54 -2 -13 -11
-34 -21 -48 -9 -13 -17 -32 -17 -40 0 -9 -6 -22 -12 -28 -10 -10 -10 -15 2
-22 8 -6 10 -10 3 -10 -6 0 -27 -22 -46 -49 -26 -36 -32 -52 -24 -60 8 -8 8
-11 -1 -11 -6 0 -9 -6 -6 -14 3 -8 0 -17 -5 -21 -6 -3 -9 -11 -5 -16 3 -6 -7
-21 -23 -35 -20 -17 -24 -24 -12 -24 9 0 19 7 23 15 3 8 11 15 18 15 7 0 -6
-19 -27 -41 -40 -42 -40 -42 -12 -35 21 5 28 3 25 -6 -3 -7 -15 -15 -28 -16
-18 -3 -20 -6 -9 -13 12 -7 11 -9 -2 -9 -19 0 -33 -26 -18 -35 12 -8 2 -25
-14 -25 -7 0 -6 4 3 10 8 5 11 10 5 10 -5 0 -17 -5 -25 -10 -10 -6 -11 -10 -2
-10 20 0 14 -14 -15 -32 l-28 -17 30 -1 c29 -1 29 -1 10 -17 -19 -15 -19 -15
10 -8 37 8 43 14 27 24 -9 5 -5 11 12 20 14 8 22 19 19 27 -3 8 -1 14 3 14 5
0 18 7 29 16 16 12 17 17 6 23 -10 7 -8 13 11 31 16 16 19 24 10 27 -10 4 -7
9 8 20 16 11 18 18 10 28 -9 11 -7 12 8 8 11 -2 23 0 26 6 4 6 2 11 -3 11 -6
0 -11 5 -11 10 0 6 8 10 18 10 15 0 15 2 2 10 -13 9 -13 12 3 24 9 7 17 16 17
20 0 3 -8 6 -17 6 -14 0 -15 2 -4 9 7 5 11 13 7 19 -3 5 1 16 10 23 14 11 29
39 40 74 12 35 21 101 15 105 -13 9 -10 50 4 50 17 0 26 13 35 54 6 26 4 32
-11 32 -10 0 -16 -3 -14 -6z m-118 -326 c-3 -3 -12 -4 -19 -1 -8 3 -5 6 6 6
11 1 17 -2 13 -5z"/>
<path d="M4928 7888 c6 -6 18 -8 28 -6 14 3 12 5 -9 10 -19 3 -25 2 -19 -4z"/>
<path d="M4888 7883 c7 -3 16 -2 19 1 4 3 -2 6 -13 5 -11 0 -14 -3 -6 -6z"/>
<path d="M4835 7850 c3 -5 14 -10 23 -10 15 0 15 2 2 10 -20 13 -33 13 -25 0z"/>
<path d="M4808 7833 c7 -3 16 -2 19 1 4 3 -2 6 -13 5 -11 0 -14 -3 -6 -6z"/>
<path d="M6511 7814 c0 -11 3 -14 6 -6 3 7 2 16 -1 19 -3 4 -6 -2 -5 -13z"/>
<path d="M6627 7763 c-4 -3 -7 -11 -7 -17 0 -6 5 -5 12 2 6 6 9 14 7 17 -3 3
-9 2 -12 -2z"/>
<path d="M7740 7450 c-9 -6 -10 -10 -3 -10 6 0 15 5 18 10 8 12 4 12 -15 0z"/>
<path d="M4828 7143 c7 -3 16 -2 19 1 4 3 -2 6 -13 5 -11 0 -14 -3 -6 -6z"/>
<path d="M5320 7120 c0 -5 7 -10 16 -10 8 0 12 5 9 10 -3 6 -10 10 -16 10 -5
0 -9 -4 -9 -10z"/>
<path d="M4713 6943 c9 -2 23 -2 30 0 6 3 -1 5 -18 5 -16 0 -22 -2 -12 -5z"/>
<path d="M7461 6913 c-13 -14 -12 -18 8 -34 30 -25 51 -25 23 0 -25 21 -29 36
-8 28 10 -4 13 -1 9 9 -7 18 -14 17 -32 -3z"/>
<path d="M5850 6895 c0 -10 52 -25 63 -18 7 4 3 9 -9 14 -23 9 -54 11 -54 4z"/>
<path d="M5900 6856 c0 -9 30 -14 35 -6 4 6 -3 10 -14 10 -12 0 -21 -2 -21 -4z"/>
<path d="M4813 6843 c9 -2 23 -2 30 0 6 3 -1 5 -18 5 -16 0 -22 -2 -12 -5z"/>
<path d="M4938 6833 c12 -2 30 -2 40 0 9 3 -1 5 -23 4 -22 0 -30 -2 -17 -4z"/>
<path d="M5078 6803 c6 -2 18 -2 25 0 6 3 1 5 -13 5 -14 0 -19 -2 -12 -5z"/>
<path d="M4350 6516 c0 -9 30 -14 35 -6 4 6 -3 10 -14 10 -12 0 -21 -2 -21 -4z"/>
<path d="M6674 6321 c17 -11 34 -17 39 -14 5 3 -5 12 -23 19 -45 19 -50 17
-16 -5z"/>
<path d="M3015 6070 c3 -5 8 -10 11 -10 2 0 4 5 4 10 0 6 -5 10 -11 10 -5 0
-7 -4 -4 -10z"/>
<path d="M2951 6044 c0 -11 3 -14 6 -6 3 7 2 16 -1 19 -3 4 -6 -2 -5 -13z"/>
<path d="M3031 6024 c0 -11 3 -14 6 -6 3 7 2 16 -1 19 -3 4 -6 -2 -5 -13z"/>
<path d="M3074 5969 c5 -40 45 -134 46 -108 0 9 -11 45 -25 80 -21 53 -25 58
-21 28z"/>
<path d="M3050 5935 c0 -5 5 -17 10 -25 5 -8 10 -10 10 -5 0 6 -5 17 -10 25
-5 8 -10 11 -10 5z"/>
<path d="M7905 5759 c-20 -13 -24 -19 -13 -19 9 0 19 4 23 10 3 5 12 7 20 3 9
-3 15 1 15 11 0 20 -7 19 -45 -5z"/>
<path d="M3341 5744 c0 -11 3 -14 6 -6 3 7 2 16 -1 19 -3 4 -6 -2 -5 -13z"/>
<path d="M7245 5670 c17 -28 41 -51 73 -72 38 -23 55 -19 19 5 -13 9 -31 22
-38 29 -37 34 -62 52 -54 38z"/>
<path d="M7300 5656 c0 -12 52 -56 65 -56 26 0 16 14 -25 38 -22 12 -40 20
-40 18z"/>
<path d="M3611 5604 c0 -11 3 -14 6 -6 3 7 2 16 -1 19 -3 4 -6 -2 -5 -13z"/>
<path d="M3546 5602 c-2 -4 -1 -14 5 -22 7 -12 9 -10 9 8 0 23 -5 28 -14 14z"/>
<path d="M3591 5564 c0 -11 3 -14 6 -6 3 7 2 16 -1 19 -3 4 -6 -2 -5 -13z"/>
<path d="M6920 4923 c-23 -24 -23 -25 -3 -15 22 12 38 30 31 37 -2 2 -14 -8
-28 -22z"/>
<path d="M6820 4795 c-7 -8 -20 -15 -29 -15 -14 0 -14 -2 -1 -10 9 -5 19 -5
26 0 6 6 14 7 17 3 9 -8 38 17 31 28 -8 14 -30 11 -44 -6z"/>
<path d="M6608 4643 c7 -3 16 -2 19 1 4 3 -2 6 -13 5 -11 0 -14 -3 -6 -6z"/>
<path d="M6608 4603 c6 -2 18 -2 25 0 6 3 1 5 -13 5 -14 0 -19 -2 -12 -5z"/>
<path d="M6598 4583 c6 -2 18 -2 25 0 6 3 1 5 -13 5 -14 0 -19 -2 -12 -5z"/>
<path d="M6608 4563 c6 -2 18 -2 25 0 6 3 1 5 -13 5 -14 0 -19 -2 -12 -5z"/>
<path d="M6603 4543 c9 -2 25 -2 35 0 9 3 1 5 -18 5 -19 0 -27 -2 -17 -5z"/>
<path d="M6573 4523 c9 -2 25 -2 35 0 9 3 1 5 -18 5 -19 0 -27 -2 -17 -5z"/>
<path d="M6668 4513 c7 -3 16 -2 19 1 4 3 -2 6 -13 5 -11 0 -14 -3 -6 -6z"/>
<path d="M6505 4505 c24 -8 116 -12 103 -4 -7 5 -35 8 -63 8 -27 0 -45 -2 -40
-4z"/>
<path d="M6538 4483 c6 -2 18 -2 25 0 6 3 1 5 -13 5 -14 0 -19 -2 -12 -5z"/>
<path d="M6480 4469 c0 -4 20 -9 44 -10 24 -2 42 -1 40 2 -5 9 -84 16 -84 8z"/>
<path d="M6608 4453 c12 -2 32 -2 45 0 12 2 2 4 -23 4 -25 0 -35 -2 -22 -4z"/>
<path d="M6480 4439 c0 -5 39 -9 87 -9 47 0 84 2 82 4 -10 8 -169 13 -169 5z"/>
<path d="M6490 4410 c8 -5 24 -9 35 -9 l20 0 -20 9 c-11 5 -27 9 -35 9 -13 1
-13 0 0 -9z"/>
<path d="M6658 4413 c12 -2 32 -2 45 0 12 2 2 4 -23 4 -25 0 -35 -2 -22 -4z"/>
<path d="M6653 4393 c9 -2 23 -2 30 0 6 3 -1 5 -18 5 -16 0 -22 -2 -12 -5z"/>
<path d="M6470 4358 c0 -10 150 -9 210 1 31 5 5 7 -82 7 -70 -1 -128 -4 -128
-8z"/>
<path d="M6466 4328 c3 -4 31 -8 62 -7 66 1 60 6 -15 12 -29 2 -50 0 -47 -5z"/>
<path d="M6628 4333 c17 -2 47 -2 65 0 17 2 3 4 -33 4 -36 0 -50 -2 -32 -4z"/>
<path d="M6658 4313 c12 -2 32 -2 45 0 12 2 2 4 -23 4 -25 0 -35 -2 -22 -4z"/>
<path d="M6460 4302 c0 -4 46 -8 103 -9 84 -1 93 0 52 7 -65 11 -155 12 -155
2z"/>
<path d="M6460 4258 c0 -20 1 -20 13 -5 10 14 34 17 132 20 l120 3 -132 2
c-131 2 -133 2 -133 -20z"/>
<path d="M6553 4243 c31 -2 83 -2 115 0 31 2 5 3 -58 3 -63 0 -89 -1 -57 -3z"/>
<path d="M7120 4231 c0 -7 -5 -9 -10 -6 -6 3 -14 -3 -18 -15 -4 -12 -11 -21
-15 -21 -4 1 -7 -1 -7 -4 0 -3 2 -4 3 -2 2 1 11 -4 20 -11 9 -8 18 -9 21 -3 4
5 1 13 -4 16 -8 5 -6 13 6 26 9 11 14 22 11 26 -4 3 -7 1 -7 -6z"/>
<path d="M7000 4165 c-11 -13 -11 -18 0 -28 10 -9 11 -9 6 1 -4 6 -3 12 2 12
5 0 9 7 9 15 0 19 -2 19 -17 0z"/>
<path d="M7039 4178 c0 -2 -2 -11 -4 -21 -3 -15 -1 -16 11 -6 7 6 11 15 8 20
-5 9 -13 12 -15 7z"/>
<path d="M7134 4138 c-16 -18 -19 -25 -7 -15 21 18 21 18 28 -3 4 -12 9 -19
12 -17 2 3 0 14 -6 25 -7 13 -7 22 1 30 7 7 10 12 7 12 -3 0 -18 -15 -35 -32z"/>
<path d="M7049 4123 c-13 -16 -12 -17 4 -4 9 7 17 15 17 17 0 8 -8 3 -21 -13z"/>
<path d="M7047 4079 c7 -7 15 -10 18 -7 3 3 -2 9 -12 12 -14 6 -15 5 -6 -5z"/>
<path d="M7077 4049 c7 -7 15 -10 18 -7 3 3 -2 9 -12 12 -14 6 -15 5 -6 -5z"/>
<path d="M7705 3090 c10 -11 20 -20 22 -20 2 0 -2 9 -9 20 -7 11 -17 20 -22
20 -5 0 -1 -9 9 -20z"/>
<path d="M7760 2990 c8 -5 20 -10 25 -10 6 0 3 5 -5 10 -8 5 -19 10 -25 10 -5
0 -3 -5 5 -10z"/>
<path d="M7745 2970 c3 -5 8 -10 11 -10 2 0 4 5 4 10 0 6 -5 10 -11 10 -5 0
-7 -4 -4 -10z"/>
<path d="M7695 2960 c-3 -5 1 -10 10 -10 9 0 13 5 10 10 -3 6 -8 10 -10 10 -2
0 -7 -4 -10 -10z"/>
<path d="M7800 2840 c0 -5 5 -10 11 -10 5 0 7 5 4 10 -3 6 -8 10 -11 10 -2 0
-4 -4 -4 -10z"/>
<path d="M7835 2840 c3 -5 8 -10 11 -10 2 0 4 5 4 10 0 6 -5 10 -11 10 -5 0
-7 -4 -4 -10z"/>
<path d="M7820 2810 c0 -5 7 -10 15 -14 8 -3 15 -1 15 4 0 5 8 10 18 13 9 2 2
4 -15 4 -18 0 -33 -3 -33 -7z"/>
<path d="M7895 2740 c3 -5 8 -10 11 -10 2 0 4 5 4 10 0 6 -5 10 -11 10 -5 0
-7 -4 -4 -10z"/>
<path d="M6166 2589 c6 -8 15 -36 19 -64 l8 -50 9 40 c10 47 6 60 -24 76 -20
10 -21 10 -12 -2z"/>
<path d="M7615 2465 c9 -82 23 -134 47 -172 17 -29 48 -45 48 -26 0 26 -66
214 -81 234 l-20 24 6 -60z"/>
<path d="M5977 2402 c-27 -30 -21 -79 12 -113 39 -38 72 -38 105 2 28 33 31
44 16 54 -5 3 -10 -1 -10 -9 0 -8 -10 -27 -23 -42 -29 -34 -64 -28 -90 15 -22
38 -22 62 3 89 12 12 17 22 12 22 -5 0 -16 -8 -25 -18z"/>
</g>
</svg>
