<svg xmlns="http://www.w3.org/2000/svg" width="822" height="1658" viewBox="0 0 822 1658">
  <defs>
    <style>
      .cls-1, .cls-3 {
        fill: none;
      }

      .cls-1 {
        stroke: #4b4b51;
        stroke-width: 20px;
      }

      .cls-1, .cls-2, .cls-3, .cls-4, .cls-5 {
        fill-rule: evenodd;
      }

      .cls-2 {
        fill: #d6d6d6;
      }

      .cls-3 {
        stroke: #b2b2b2;
        stroke-width: 10px;
      }

      .cls-5 {
        fill: #323232;
      }

      .cls-6 {
        fill: #4b4b51;
      }
    </style>
  </defs>
  <path id="Retângulo_1_copiar_2" data-name="Retângulo 1 copiar 2" class="cls-1" d="M147.885,9.336H674.053a126,126,0,0,1,126,126V1521.05a126,126,0,0,1-126,126H147.885a126,126,0,0,1-126-126V135.336A126,126,0,0,1,147.885,9.336Z"/>
  <path id="Retângulo_Arredondado_3_copiar" data-name="Retângulo Arredondado 3 copiar" class="cls-2" d="M8.48,327.323H8.588a5.5,5.5,0,0,1,5.5,5.5v57.893a5.5,5.5,0,0,1-5.5,5.5H8.48a5.5,5.5,0,0,1-5.5-5.5V332.823A5.5,5.5,0,0,1,8.48,327.323Zm-3,123.807h6.108a2.5,2.5,0,0,1,2.5,2.5v120.8a2.5,2.5,0,0,1-2.5,2.5H5.48a2.5,2.5,0,0,1-2.5-2.5V453.63A2.5,2.5,0,0,1,5.48,451.13Zm804.682,89.049h6.108a2.5,2.5,0,0,1,2.5,2.5V739.427a2.5,2.5,0,0,1-2.5,2.5h-6.108a2.5,2.5,0,0,1-2.5-2.5V542.679A2.5,2.5,0,0,1,810.162,540.179Z"/>
  <path id="Retângulo_1" data-name="Retângulo 1" class="cls-3" d="M146.7,2.034H675.257a133,133,0,0,1,133,133V1524a133,133,0,0,1-133,133H146.7a133,133,0,0,1-133-133V135.034A133,133,0,0,1,146.7,2.034Z"/>
  <path id="Retângulo_Arredondado_1" data-name="Retângulo Arredondado 1" class="cls-4" d="M326.243,58.014h171.3a31.931,31.931,0,0,1,31.931,31.931h0a31.931,31.931,0,0,1-31.931,31.93H326.243a31.931,31.931,0,0,1-31.931-31.93h0A31.931,31.931,0,0,1,326.243,58.014Z"/>
  <path id="Elipse_1" data-name="Elipse 1" class="cls-5" d="M494.88,76.479a13.247,13.247,0,1,1-13.247,13.247A13.247,13.247,0,0,1,494.88,76.479Z"/>
  <circle id="Elipse_1_copiar" data-name="Elipse 1 copiar" class="cls-6" cx="494.875" cy="89.719" r="5.719"/>
</svg>
