<svg xmlns="http://www.w3.org/2000/svg" width="1968" height="1674" viewBox="0 0 1968 1674">
  <defs>
    <style>
      .cls-1 {
        fill: #ff7f00;
      }

      .cls-1, .cls-2 {
        fill-rule: evenodd;
      }

      .cls-2 {
        fill: #fff;
      }
    </style>
  </defs>
  <path id="Forma_339_1" data-name="Forma 339 1" class="cls-1" d="M716.57,0.283L846.231,261.661H1123.78L1251.42,0.283l142.83,293.8L1290.93,401.468l108.38,107.389L981.969,923.212,568.676,509.87,678.077,396.4,574.754,294.08Zm-1.013,122.584L639.585,283.949,718.6,359.932l76.986-76.995Zm534.853,0-75.98,161.082,79.01,75.983,75.98-78.009ZM840.153,314.342l-83.064,87.126,117.505,117.52L985.008,808.732,1095.42,516.961l117.51-119.545-84.08-83.074h-288.7Zm-124.6,123.6-69.895,72.943L914.1,776.314,828,546.341Zm533.833,0-108.38,108.4-85.09,229.973L1323.34,511.9Z"/>
  <path id="Lazy_Fox_copiar" data-name="Lazy Fox copiar" class="cls-2" d="M45.566,1359.74v-270.3H0.142v315.73H227.823v-45.43H45.566Zm327.706-270.66L259.411,1404.64l48.286,0.35,65.575-182.07,65.757,182.07,48.1-.35Zm377.146,6.09,3.3-5.73H522.734v45.43H675.07L545.323,1359.74l-22.589,39.16-3.606,6.27h231.29v-45.43H597.779l129.733-224.87Zm230.2-5.73-66.126,148.99-66.112-148.99H798.688l93.091,209.78,0.006,0.01v105.94h45.424V1299.21l93.1-209.77H980.617Zm461.483,45.43v-45.43H1214.42v45.43H1442.1Zm-227.68,270.3h45.43V1270.02H1442.1v-45.43H1214.42v180.58Zm373.11-315.73a113.973,113.973,0,0,0-113.84,113.85v88.04a113.84,113.84,0,1,0,227.68,0v-88.04A113.973,113.973,0,0,0,1587.53,1089.44Zm68.42,201.89a68.415,68.415,0,0,1-136.83,0v-88.04a68.415,68.415,0,1,1,136.83,0v88.04Zm220.67-44.29,90.92-157.6h-52.43L1850.4,1201.6l-64.71-112.16h-52.43l90.92,157.6-91.22,158.13h52.43l65.01-112.7,65.01,112.7h52.43Z"/>
  <path id="design_copiar" data-name="design copiar" class="cls-2" d="M625.045,1529.82c-18.256,0-30.623,12.17-30.623,30.62v40.83c0,18.46,12.367,30.63,30.623,30.63h68.512c18.257,0,30.624-12.17,30.624-30.63V1491.34c0-2.94-1.374-4.32-4.319-4.32h-10.8c-2.748,0-4.122,1.38-4.122,4.32v49.47c-4.711-6.87-12.76-10.99-24.146-10.99H625.045Zm79.9,68.31c0,10.41-6.478,16.88-16.883,16.88H630.542c-10.4,0-16.883-6.47-16.883-16.88v-34.55c0-10.4,6.479-16.88,16.883-16.88H688.06c10.405,0,16.883,6.48,16.883,16.88v34.55Zm73.031-68.31c-18.256,0-30.623,12.17-30.623,30.62v40.83c0,18.46,12.367,30.63,30.623,30.63H867.3c2.944,0,4.319-1.38,4.319-4.32v-8.44c0-2.75-1.375-4.13-4.319-4.13H783.471c-10.4,0-16.882-6.47-16.882-16.88v-8.83h82.253c17.667,0,26.7-9.23,26.7-26.9v-5.69c0-17.67-9.031-26.89-26.7-26.89H777.974Zm-11.385,33.76c0-10.4,6.478-16.88,16.882-16.88h60.66c8.833,0,12.171,3.73,12.171,12.17v1.37c0,8.45-3.338,12.18-12.171,12.18H766.589v-8.84Zm224.583,68.32c17.868,0,26.9-9.23,26.9-26.9v-5.69c0-17.67-9.03-26.89-26.9-26.89H922.66c-8.834,0-12.171-3.73-12.171-12.18v-1.37c0-8.44,3.337-12.17,12.171-12.17h87.16c2.95,0,4.32-1.37,4.32-4.12v-8.44c0-2.95-1.37-4.32-4.32-4.32H917.949c-17.668,0-26.7,9.22-26.7,26.89v5.69c0,17.67,9.03,26.9,26.7,26.9h68.707c8.834,0,12.172,3.73,12.172,12.17v1.37c0,8.44-3.338,12.17-12.172,12.17H897.533c-2.945,0-4.319,1.38-4.319,4.13v8.44c0,2.94,1.374,4.32,4.319,4.32h93.639Zm66.158-28.86v-68.9c0-2.95-1.37-4.32-4.32-4.32h-10.79c-2.95,0-4.32,1.37-4.32,4.32V1605c0,17.67,9.03,26.9,26.7,26.9h6.47c2.95,0,4.32-1.38,4.32-4.32v-8.44c0-2.75-1.37-4.13-4.32-4.13h-2.35C1060.47,1615.01,1057.33,1611.28,1057.33,1603.04Zm0-111.7c0-2.94-1.37-4.32-4.32-4.32h-10.79c-2.95,0-4.32,1.38-4.32,4.32v15.51c0,2.94,1.37,4.12,4.32,4.12h10.79c2.95,0,4.32-1.18,4.32-4.12v-15.51Zm120.93,140.56c11.58,0,19.44-4.13,24.15-10.8v18.26c0,11.38-6.48,18.06-17.87,18.06H1101.7q-4.125,0-4.12,4.12v7.85c0,2.95,1.37,4.32,4.12,4.32h87.16c20.03,0,32.98-12.76,32.98-32.98v-80.29c0-18.45-12.37-30.62-30.82-30.62h-68.31c-18.26,0-30.63,12.17-30.63,30.62v40.83c0,18.46,12.37,30.63,30.63,30.63h55.55Zm24.15-33.77c0,10.41-6.28,16.88-16.69,16.88H1128.2c-10.4,0-16.88-6.47-16.88-16.88v-34.55c0-10.4,6.48-16.88,16.88-16.88h57.52c10.41,0,16.69,6.48,16.69,16.88v34.55Zm43.39-37.69v67.14c0,2.94,1.37,4.32,4.32,4.32h10.79c2.95,0,4.32-1.38,4.32-4.32v-64c0-10.4,6.28-16.88,16.69-16.88h54.77c10.4,0,16.68,6.48,16.68,16.88v64c0,2.94,1.38,4.32,4.32,4.32h10.8c2.94,0,4.32-1.38,4.32-4.32v-67.14c0-18.45-12.37-30.62-30.82-30.62h-65.57C1258.16,1529.82,1245.8,1541.99,1245.8,1560.44Z"/>
</svg>
