<svg xmlns="http://www.w3.org/2000/svg" width="3936" height="3184" viewBox="0 0 3936 3184">
  <defs>
    <style>
      .cls-1 {
        fill: #fff;
      }

      .cls-1, .cls-2 {
        fill-rule: evenodd;
      }

      .cls-2 {
        fill: #ff7f00;
      }
    </style>
  </defs>
  <path id="design_copiar_2" data-name="design copiar 2" class="cls-1" d="M1385.74,2686.77V2818.2a1.294,1.294,0,0,1-.84,1.4,1.994,1.994,0,0,1-1.95-.84,81.814,81.814,0,0,0-30.76-24.89,93.51,93.51,0,0,0-40.27-8.67q-39.7,0-66.55,20.41-26.835,20.43-36.91,56.21-6.7,22.935-6.71,69.35,0,45.855,7.83,71.02,10.065,34.68,36.63,54.81t65.71,20.13q22.365,0,40.55-8.95a84.762,84.762,0,0,0,30.48-25.17,2,2,0,0,1,1.95-.83,1.288,1.288,0,0,1,.84,1.39v23.49c0,3.73,1.86,5.59,5.6,5.59h28.52c3.72,0,5.59-1.86,5.59-5.59V2686.77c0-3.72-1.87-5.59-5.59-5.59h-28.52c-3.74,0-5.6,1.87-5.6,5.59h0Zm-10.06,312.62q-7.275,19.59-22.37,31.32t-37.47,11.74q-23.49,0-40.55-11.74a61.081,61.081,0,0,1-23.77-31.88,93.741,93.741,0,0,1-7.82-26.56q-2.25-14.8-2.24-41.1,0-27.4,3.07-42.79a97.5,97.5,0,0,1,9.79-27.68,63.418,63.418,0,0,1,23.49-29.64q16.215-11.175,38.59-11.18,21.24,0,36.63,11.46a63.42,63.42,0,0,1,22.09,30.48,95.049,95.049,0,0,1,7.83,27.12q2.22,15.39,2.23,42.23t-2.23,41.94a100.134,100.134,0,0,1-7.27,26.28h0Zm356.79-115.76q-6.705-46.98-34.11-72.7t-78.3-25.73q-40.83,0-69.62,21.81-28.815,21.81-38.31,58.16a121.93,121.93,0,0,0-4.2,26.57q-0.84,14.82-.84,38.31,0,50.325,10.07,77.17,11.745,33.015,38.59,51.45,26.835,18.465,66.55,19.02,36.345,0,64.31-15.38t41.95-42.22c1.48-3.36.74-5.96-2.24-7.83l-21.81-12.87c-2.99-1.86-5.59-1.12-7.83,2.24a73.121,73.121,0,0,1-27.96,30.2q-17.91,10.635-41.39,10.62-31.32,0-51.45-14.54t-26.28-39.7q-2.25-8.94-3.36-39.71a1.983,1.983,0,0,1,2.24-2.24h180.63q5.6,0,5.6-5.59v-17.89q0-23.49-2.24-39.15h0Zm-112.41-63.75q28.53,0,47.26,14.82t24.88,39.98q2.235,10.635,3.36,35.79a1.979,1.979,0,0,1-2.24,2.24H1548.48a1.975,1.975,0,0,1-2.24-2.24q1.11-26.28,4.48-38.03,5.58-24.03,23.76-38.3t45.58-14.26h0Zm281.3,255.57q46.98,0,75.5-21.81t28.52-58.16q0-25.725-14.54-41.67a96.76,96.76,0,0,0-34.67-24.32q-20.13-8.385-52.57-17.9-35.235-10.065-52.01-20.13t-16.78-29.08q0-20.13,17.34-31.6,17.325-11.46,45.86-11.46,30.75,0,48.93,12.86,18.165,12.87,18.18,31.88v1.67q0,5.595,5.59,5.6h26.28q5.6,0,5.6-5.6v-1.67a65.231,65.231,0,0,0-12.87-39.43q-12.87-17.625-36.63-27.68t-54.52-10.07q-45.87,0-73.82,21.25-27.975,21.255-27.97,57.04,0,24.615,13.71,40.55a94.442,94.442,0,0,0,33.83,24.89q20.13,8.94,51.45,17.89,26.28,7.845,38.87,12.86a66.489,66.489,0,0,1,21.81,13.99q9.225,8.94,9.23,22.92,0,20.145-17.9,33.28t-46.98,13.14q-29.085,0-48.37-13.7t-19.29-32.16v-4.47c0-3.72-1.87-5.59-5.6-5.59H1800.7c-3.73,0-5.59,1.87-5.59,5.59v6.71a59.193,59.193,0,0,0,13.14,37.47q13.125,16.785,37.47,26.84t55.64,10.07h0Zm203-337.22q13.425,0,22.37-8.95t8.95-22.37q0-13.98-8.95-22.65t-22.37-8.67q-13.425,0-22.37,8.67t-8.95,22.65q0,13.425,8.95,22.37t22.37,8.95h0Zm-15.66,333.86h28.52q5.595,0,5.6-5.59V2794.71c0-3.72-1.87-5.59-5.6-5.59H2088.7c-3.73,0-5.59,1.87-5.59,5.59V3066.5q0,5.6,5.59,5.59h0Zm305.9-276.82v21.81a1.891,1.891,0,0,1-.83,1.68c-0.56.37-1.22,0.19-1.96-.56q-25.725-33-75.5-33-36.915,0-63.19,20.41-26.295,20.43-36.36,53.97a129.629,129.629,0,0,0-5.87,30.2q-1.395,16.785-1.4,41.39,0,45.285,6.72,68.22,9.495,35.805,37.74,55.37t64.6,19.57q47.52,0,73.26-33.55a2,2,0,0,1,1.96-.84,1.3,1.3,0,0,1,.83,1.4v20.69q0,44.175-23.48,64.59t-75.5,20.41l-15.1-.56a4.218,4.218,0,0,0-3.92.84,5.171,5.171,0,0,0-1.67,4.2l-1.12,25.72q0,5.595,5.59,6.15,6.7,0.555,19.57.56,63.2,0,99.27-29.08t36.07-91.71V2795.27c0-3.72-1.87-5.59-5.59-5.59H2400.2c-3.73,0-5.6,1.87-5.6,5.59h0Zm-2.79,191.82q-4.485,23.49-22.09,38.59-17.625,15.09-45.02,15.1-26.85,0-45.58-15.38a69.957,69.957,0,0,1-24.33-38.87q-5.6-15.645-5.59-56.48,0-38.025,5.59-55.93,7.26-24.03,25.45-39.15,18.165-15.09,44.46-15.09,26.835,0,44.46,15.37a66.766,66.766,0,0,1,22.09,38.87,91.933,91.933,0,0,1,2.8,18.18q0.54,9.795.55,38.31,0,23.475-.55,35.79a141.03,141.03,0,0,1-2.24,20.69h0Zm244.94-201.33q-50.895,0-75.5,34.67c-0.37.76-.84,0.94-1.4,0.56a1.863,1.863,0,0,1-.83-1.67v-24.05c0-3.72-1.87-5.59-5.6-5.59H2524.9c-3.73,0-5.59,1.87-5.59,5.59v271.79q0,5.595,5.59,5.59h28.52q5.6,0,5.6-5.59V2889.22q0-30.75,19.01-49.77,19-19,49.77-19.02,29.64,0,48.38,19.58,18.72,19.575,18.73,50.33v176.72c0,3.73,1.86,5.59,5.6,5.59h28.52c3.72,0,5.59-1.86,5.59-5.59V2882.51q0-44.175-26.57-70.46t-71.3-26.29h0Z"/>
  <path id="Lazy_Fox_copiar_2" data-name="Lazy Fox copiar 2" class="cls-1" d="M65.9,2486.74V1971.13H0.324v580.83H350.546v-65.22H65.9Zm838.761,65.22H976L707.211,1962.13H700L431.573,2551.96h70.981l42.517-95.49H862.144ZM570.653,2399.54l133.315-298.69,132.955,298.69H570.653Zm495.387,152.42h408.59v-65.22H1171.97l302.66-515.61H1066.04v64.86H1368.7Zm704,0h65.22V2305.14L2041,1971.13h-73.87L1802.83,2232l-164.3-260.87h-73.5l205.01,334.01v246.82Zm987.17-517.05v-65.22H2415.99v582.99h65.58V2293.97h238.89V2228.4H2481.57V2034.91h275.64Zm379,524.61c164.66,0,299.06-134.03,299.06-297.61,0-164.67-134.4-299.06-298.7-299.06-163.94,0-298.34,134.39-298.34,299.06C2838.23,2425.49,2972.63,2559.52,3136.21,2559.52Zm0-66.29c-127.55,0-231.68-104.13-231.68-231.68,0-127.92,104.13-232.77,231.68-232.77,128.27,0,232.76,104.85,232.76,232.77C3368.97,2389.1,3264.48,2493.23,3136.21,2493.23Zm329.28,58.73h74.59l160.34-242.85,160.69,242.85h74.59l-197.09-301.94,182.68-278.89H3844.9l-144.12,221.96-144.85-221.96h-76.02l182.31,278.89Z"/>
  <path id="Forma_339_1" data-name="Forma 339 1" class="cls-2" d="M1433.46,0.074S1606.35,348.6,1692.78,522.831h555.11L2503.16,0.074l285.66,587.6L2582.17,802.445l216.78,214.775-834.69,828.71-826.58-826.68,218.8-226.936L1149.83,587.669Zm-2.02,245.169L1279.49,567.407l158.03,151.964,153.97-153.99Zm1069.7,0L2349.19,567.407l158.02,151.964,151.95-156.016Zm-820.51,382.95L1514.5,802.445l235.01,235.035,220.83,579.49,220.83-583.54,235.01-239.09L2258.02,628.193H1680.63Zm-249.19,247.2L1291.65,1021.27l536.87,530.87-172.2-459.95Zm1067.67,0-216.78,216.8-170.18,459.95L2647,1023.3Z"/>
</svg>
