<svg xmlns="http://www.w3.org/2000/svg" width="6156" height="1844" viewBox="0 0 6156 1844">
  <defs>
    <style>
      .cls-1 {
        fill: #fff;
      }

      .cls-1, .cls-2 {
        fill-rule: evenodd;
      }

      .cls-2 {
        fill: #ff7f00;
      }
    </style>
  </defs>
  <path id="design_copiar_2" data-name="design copiar 2" class="cls-1" d="M4806.59,1347.78V1479.2a1.294,1.294,0,0,1-.84,1.4,2,2,0,0,1-1.96-.84,81.66,81.66,0,0,0-30.76-24.89,93.466,93.466,0,0,0-40.26-8.67q-39.72,0-66.55,20.41-26.85,20.43-36.91,56.21-6.72,22.935-6.71,69.35,0,45.855,7.83,71.02,10.065,34.68,36.63,54.81t65.71,20.13q22.35,0,40.54-8.95a84.678,84.678,0,0,0,30.48-25.17,2.011,2.011,0,0,1,1.96-.83,1.288,1.288,0,0,1,.84,1.39v23.49q0,5.6,5.59,5.59h28.52c3.72,0,5.59-1.86,5.59-5.59V1347.78c0-3.73-1.87-5.6-5.59-5.6h-28.52q-5.6,0-5.59,5.6h0Zm-10.07,312.61q-7.275,19.59-22.37,31.32t-37.47,11.74q-23.49,0-40.54-11.74a60.977,60.977,0,0,1-23.77-31.88,93.744,93.744,0,0,1-7.83-26.56q-2.25-14.8-2.24-41.1,0-27.4,3.08-42.79a97.18,97.18,0,0,1,9.78-27.68,63.542,63.542,0,0,1,23.49-29.64q16.215-11.175,38.59-11.18,21.255,0,36.63,11.46a63.356,63.356,0,0,1,22.09,30.48,94.729,94.729,0,0,1,7.83,27.12q2.235,15.39,2.24,42.23t-2.24,41.94a99.37,99.37,0,0,1-7.27,26.28h0Zm356.79-115.76q-6.705-46.98-34.11-72.7t-78.29-25.73q-40.83,0-69.63,21.81t-38.31,58.16a121.955,121.955,0,0,0-4.19,26.57q-0.84,14.82-.84,38.31,0,50.325,10.06,77.17,11.745,33.015,38.59,51.45,26.85,18.465,66.55,19.02,36.345,0,64.32-15.38,27.945-15.375,41.94-42.22c1.48-3.36.74-5.96-2.24-7.83l-21.81-12.87c-2.99-1.86-5.59-1.12-7.83,2.24a73.056,73.056,0,0,1-27.96,30.2q-17.91,10.635-41.38,10.62-31.335,0-51.46-14.54t-26.28-39.7q-2.235-8.94-3.35-39.71a1.979,1.979,0,0,1,2.23-2.24h180.64c3.72,0,5.59-1.86,5.59-5.59v-17.89q0-23.49-2.24-39.15h0Zm-112.4-63.75q28.515,0,47.25,14.82t24.89,39.98q2.22,10.635,3.35,35.79a1.975,1.975,0,0,1-2.23,2.24H4969.32a1.972,1.972,0,0,1-2.23-2.24q1.11-26.28,4.47-38.03,5.58-24.03,23.77-38.3,18.165-14.265,45.58-14.26h0Zm281.3,255.57q46.965,0,75.49-21.81t28.53-58.16q0-25.725-14.54-41.67a96.8,96.8,0,0,0-34.68-24.32q-20.13-8.385-52.57-17.9-35.22-10.065-52.01-20.13-16.77-10.065-16.77-29.08,0-20.13,17.33-31.6t45.86-11.46q30.75,0,48.94,12.86,18.165,12.87,18.17,31.88v1.67q0,5.6,5.59,5.6h26.29c3.72,0,5.59-1.87,5.59-5.6v-1.67a65.286,65.286,0,0,0-12.86-39.43q-12.87-17.625-36.63-27.68t-54.53-10.07q-45.855,0-73.82,21.25t-27.96,57.04q0,24.615,13.7,40.55a94.442,94.442,0,0,0,33.83,24.89q20.145,8.94,51.45,17.89,26.28,7.845,38.87,12.86a66.489,66.489,0,0,1,21.81,13.99q9.225,8.94,9.23,22.92,0,20.145-17.9,33.28t-46.97,13.14q-29.085,0-48.38-13.7t-19.29-32.16v-4.47c0-3.72-1.87-5.59-5.59-5.59h-26.85c-3.73,0-5.59,1.87-5.59,5.59v6.71a59.251,59.251,0,0,0,13.14,37.47q13.14,16.785,37.47,26.84,24.33,10.08,55.65,10.07h0Zm203-337.22q13.41,0,22.37-8.95,8.94-8.94,8.94-22.37,0-13.98-8.94-22.65t-22.37-8.67q-13.425,0-22.37,8.67t-8.95,22.65q0,13.425,8.95,22.37t22.37,8.95h0Zm-15.66,333.87h28.52c3.72,0,5.59-1.87,5.59-5.6V1455.71c0-3.72-1.87-5.59-5.59-5.59h-28.52c-3.73,0-5.6,1.87-5.6,5.59V1727.5q0,5.6,5.6,5.6h0Zm305.9-276.83v21.81a1.877,1.877,0,0,1-.84,1.68c-0.56.37-1.22,0.19-1.96-.56q-25.725-33-75.5-33-36.9,0-63.19,20.41-26.295,20.43-36.35,53.97a128.6,128.6,0,0,0-5.87,30.2q-1.41,16.785-1.4,41.39,0,45.285,6.71,68.22,9.495,35.8,37.75,55.37,28.23,19.575,64.59,19.57,47.535,0,73.26-33.55a2,2,0,0,1,1.96-.84,1.294,1.294,0,0,1,.84,1.4v20.69q0,44.175-23.49,64.59t-75.5,20.41l-15.1-.56a4.2,4.2,0,0,0-3.91.84,5.146,5.146,0,0,0-1.68,4.2l-1.12,25.72q0,5.6,5.59,6.15,6.72,0.555,19.58.56,63.18,0,99.26-29.08t36.07-91.71V1456.27c0-3.72-1.87-5.59-5.59-5.59h-28.52c-3.73,0-5.59,1.87-5.59,5.59h0Zm-2.8,191.82q-4.485,23.49-22.09,38.59t-45.02,15.1q-26.835,0-45.58-15.38a69.941,69.941,0,0,1-24.32-38.87q-5.6-15.645-5.6-56.48,0-38.025,5.6-55.93,7.26-24.03,25.44-39.15,18.165-15.09,44.46-15.09,26.85,0,44.46,15.37a66.713,66.713,0,0,1,22.09,38.87,91.2,91.2,0,0,1,2.8,18.18q0.555,9.795.56,38.31,0,23.475-.56,35.79a141.03,141.03,0,0,1-2.24,20.69h0Zm244.94-201.33q-50.9,0-75.49,34.67c-0.38.76-.84,0.94-1.4,0.56a1.849,1.849,0,0,1-.84-1.67v-24.05c0-3.72-1.87-5.59-5.59-5.59h-28.52c-3.74,0-5.6,1.87-5.6,5.59v271.79c0,3.73,1.86,5.59,5.6,5.59h28.52c3.72,0,5.59-1.86,5.59-5.59V1550.22q0-30.75,19.01-49.77t49.78-19.02q29.625,0,48.37,19.58t18.74,50.33v176.72q0,5.6,5.59,5.59h28.52c3.72,0,5.59-1.86,5.59-5.59V1543.51q0-44.175-26.56-70.46t-71.31-26.29h0Z"/>
  <path id="Lazy_Fox_copiar_2" data-name="Lazy Fox copiar 2" class="cls-1" d="M2284.74,1147.74v-515.6h-65.57V1212.96h350.22v-65.22H2284.74Zm838.76,65.22h71.35l-268.8-589.833h-7.2L2650.42,1212.96h70.98l42.51-95.49h317.08Zm-334-152.42,133.31-298.693,132.96,298.693H2789.5Zm495.38,152.42h408.59v-65.22H3390.81l302.66-515.6H3284.88v64.856h302.66Zm704.01,0h65.21V966.143l205.74-334.008h-73.86L4021.67,893l-164.3-260.865h-73.5l205.02,334.008V1212.96Zm987.16-517.05V630.694H4634.84V1213.68h65.57V954.973H4939.3V889.4H4700.41V695.91h275.64Zm379.01,524.61c164.66,0,299.05-134.03,299.05-297.614,0-164.662-134.39-299.058-298.69-299.058-163.95,0-298.34,134.4-298.34,299.058C5057.08,1086.49,5191.47,1220.52,5355.06,1220.52Zm0-66.29c-127.55,0-231.68-104.13-231.68-231.685,0-127.91,104.13-232.76,231.68-232.76,128.27,0,232.76,104.85,232.76,232.76C5587.82,1050.1,5483.33,1154.23,5355.06,1154.23Zm329.28,58.73h74.58l160.34-242.854,160.7,242.854h74.58L5957.45,911.015l182.68-278.88h-76.39L5919.62,854.086,5774.77,632.135h-76.02l182.32,278.88Z"/>
  <path id="Forma_339_1" data-name="Forma 339 1" class="cls-2" d="M296.307-.926L555.628,521.831H1110.74L1366-.926l285.66,587.6L1445.02,801.445l216.77,214.775L827.1,1844.93,0.519,1018.25l218.8-226.936L12.675,586.669Zm-2.026,245.169L142.335,566.407,300.359,718.371,454.33,564.381Zm1069.7,0L1212.03,566.407l158.03,151.964L1522,562.355ZM543.472,627.193L377.345,801.445,612.354,1036.48l220.828,579.49,220.828-583.54,235.01-239.089L1120.87,627.193h-577.4Zm-249.191,247.2L154.491,1020.27l536.875,530.87L519.161,1091.19Zm1067.669,0-216.77,216.8L975,1551.14,1509.85,1022.3Z"/>
</svg>
