<svg xmlns="http://www.w3.org/2000/svg" width="2977" height="943" viewBox="0 0 2977 943">
  <defs>
    <style>
      .cls-1 {
        fill: #ff7f00;
      }

      .cls-1, .cls-2 {
        fill-rule: evenodd;
      }

      .cls-2 {
        fill: #fff;
      }
    </style>
  </defs>
  <path id="Forma_339_1" data-name="Forma 339 1" class="cls-1" d="M147.388-.463l129.66,261.378H554.6L682.237-.463l142.829,293.8L721.743,400.723,830.131,508.111,412.786,922.467-0.506,509.124,108.9,395.657,5.572,293.335Zm-1.013,122.585L70.4,283.2l79.012,75.982L226.4,282.191Zm534.849,0L605.251,283.2l79.012,75.982,75.973-78.009ZM270.971,313.6l-83.064,87.127,117.5,117.519L415.825,807.987,526.239,516.215,643.744,396.67,559.667,313.6h-288.7Zm-124.6,123.6-69.9,72.943L344.917,775.568,258.815,545.6Zm533.836,0L571.823,545.6l-85.09,229.973L754.158,511.15Z"/>
  <path id="Lazy_Fox_copiar" data-name="Lazy Fox copiar" class="cls-2" d="M1054.23,573.839v-270.3H1008.8v315.72h227.68V573.839H1054.23Zm327.7-270.657L1268.07,618.74l48.29,0.344,65.57-182.068,65.76,182.068,48.1-.344Zm377.15,6.084,3.3-5.726H1531.4v45.424h152.33L1553.98,573.839,1531.4,613l-3.61,6.263h231.29V573.839H1606.44l129.73-224.875Zm230.2-5.726-66.13,148.99-66.11-148.99h-49.69l93.09,209.776,0.01,0.012V619.263h45.42V513.3l93.1-209.763h-49.69Zm461.48,45.426V303.543H2223.08v45.423h227.68Zm-227.68,270.3h45.43V484.115h182.26V438.691H2223.08V619.263Zm373.11-315.72a113.97,113.97,0,0,0-113.84,113.84v88.04a113.84,113.84,0,0,0,227.68,0v-88.04A113.964,113.964,0,0,0,2596.19,303.543Zm68.42,201.88a68.415,68.415,0,1,1-136.83,0v-88.04a68.415,68.415,0,1,1,136.83,0v88.04Zm220.68-44.29L2976.2,303.54h-52.43L2859.06,415.7l-64.7-112.156h-52.43l90.91,157.593-91.22,158.13h52.43l65.01-112.692,65.01,112.692h52.44Z"/>
  <path id="design_copiar" data-name="design copiar" class="cls-2" d="M2228.71,743.915c-18.26,0-30.63,12.171-30.63,30.624v40.832c0,18.453,12.37,30.624,30.63,30.624h68.51c18.26,0,30.62-12.171,30.62-30.624V705.438c0-2.944-1.37-4.318-4.32-4.318h-10.79c-2.75,0-4.13,1.374-4.13,4.318v49.47c-4.71-6.871-12.76-10.993-24.14-10.993h-55.75Zm79.89,68.315c0,10.4-6.47,16.883-16.88,16.883H2234.2c-10.4,0-16.88-6.479-16.88-16.883V777.68c0-10.4,6.48-16.883,16.88-16.883h57.52c10.41,0,16.88,6.478,16.88,16.883v34.55Zm73.04-68.315c-18.26,0-30.63,12.171-30.63,30.624v40.832c0,18.453,12.37,30.624,30.63,30.624h89.32c2.94,0,4.32-1.374,4.32-4.319v-8.441c0-2.748-1.38-4.122-4.32-4.122h-83.83c-10.4,0-16.88-6.479-16.88-16.883V803.4h82.25c17.67,0,26.7-9.226,26.7-26.894v-5.693c0-17.668-9.03-26.894-26.7-26.894h-70.86Zm-11.39,33.765c0-10.4,6.48-16.883,16.88-16.883h60.66c8.84,0,12.17,3.73,12.17,12.171v1.374c0,8.442-3.33,12.172-12.17,12.172h-77.54V777.68ZM2594.83,846c17.87,0,26.9-9.227,26.9-26.894v-5.693c0-17.668-9.03-26.894-26.9-26.894h-68.51c-8.83,0-12.17-3.73-12.17-12.172v-1.374c0-8.441,3.34-12.171,12.17-12.171h87.16c2.95,0,4.32-1.374,4.32-4.122v-8.442c0-2.944-1.37-4.318-4.32-4.318h-91.87c-17.67,0-26.7,9.226-26.7,26.894V776.5c0,17.668,9.03,26.894,26.7,26.894h68.71c8.83,0,12.17,3.73,12.17,12.171v1.374c0,8.442-3.34,12.172-12.17,12.172h-89.13c-2.94,0-4.31,1.374-4.31,4.122v8.441c0,2.945,1.37,4.319,4.31,4.319h93.64Zm66.16-28.857V748.233c0-2.944-1.37-4.318-4.31-4.318h-10.8c-2.95,0-4.32,1.374-4.32,4.318V819.1c0,17.667,9.03,26.894,26.7,26.894h6.48c2.94,0,4.32-1.374,4.32-4.319v-8.441c0-2.748-1.38-4.122-4.32-4.122h-2.36C2664.14,829.113,2660.99,825.383,2660.99,817.138Zm0-111.7c0-2.944-1.37-4.318-4.31-4.318h-10.8c-2.95,0-4.32,1.374-4.32,4.318v15.509c0,2.944,1.37,4.122,4.32,4.122h10.8c2.94,0,4.31-1.178,4.31-4.122V705.438ZM2781.92,846c11.58,0,19.44-4.122,24.15-10.8v18.257c0,11.386-6.48,18.06-17.87,18.06h-82.84q-4.125,0-4.12,4.122v7.853c0,2.944,1.37,4.319,4.12,4.319h87.16c20.03,0,32.98-12.76,32.98-32.98v-80.29c0-18.453-12.36-30.624-30.82-30.624h-68.31c-18.26,0-30.63,12.171-30.63,30.624v40.832c0,18.453,12.37,30.624,30.63,30.624h55.55Zm24.15-33.765c0,10.4-6.28,16.883-16.69,16.883h-57.52c-10.4,0-16.88-6.479-16.88-16.883V777.68c0-10.4,6.48-16.883,16.88-16.883h57.52c10.41,0,16.69,6.478,16.69,16.883v34.55Zm43.39-37.691v67.137c0,2.945,1.37,4.319,4.32,4.319h10.79c2.95,0,4.32-1.374,4.32-4.319v-64c0-10.4,6.28-16.883,16.69-16.883h54.77c10.4,0,16.68,6.478,16.68,16.883v64c0,2.945,1.38,4.319,4.32,4.319h10.8c2.94,0,4.32-1.374,4.32-4.319V774.539c0-18.453-12.37-30.624-30.82-30.624h-65.57C2861.83,743.915,2849.46,756.086,2849.46,774.539Z"/>
</svg>
